<svg version="1.2" xmlns="http://www.w3.org/2000/svg" viewBox="0 0 3528 2581" width="3528" height="2581">
	<style>
		.s0 { fill: #e85716 } 
		.s1 { fill: #000000 } 
	</style>
	<g id="Capa 1">
		<g id="&lt;Group&gt;">
			<g id="&lt;Group&gt;">
				<g id="&lt;Group&gt;">
					<path id="&lt;Compound Path&gt;" fill-rule="evenodd" class="s0" d="m335.2 1446.52v-1066.02h186.26q80.21 0 121.78 49.44 41.56 49.43 41.56 138.26v690.62q0 88.85-42.27 138.27-42.28 49.43-121.07 49.43zm173.37-138.98q7.16 0 12.19-6.45 5-6.44 5-17.91v-740.77q0.01-22.91-17.19-22.92h-12.9v788.05z"/>
					<path id="&lt;Compound Path&gt;" class="s0" d="m875.34 1446.52h-160.47v-1066.02h160.47z"/>
					<path id="&lt;Compound Path&gt;" class="s0" d="m946.26 1418.58q-45.14-42.24-45.14-126.81v-255.03h157.61v255.03q0 30.09 17.2 30.1 5.73 0 10.03-5.74 4.29-5.72 4.29-14.32v-259.35q0.01-32.94-15.04-50.14-15.04-17.19-62.33-44.42-60.19-35.8-85.24-75.23-25.1-39.39-26.52-112.47v-236.41q0-74.49 47.28-116.06 47.29-41.55 124.66-41.56 83.08 0 128.96 45.14 45.83 45.14 44.42 125.37v229.25h-153.32v-229.25q0-30.09-17.19-30.09c-9.56 0-14.33 6.23-14.33 18.63v230.68q0 30.09 12.89 47.29 12.9 17.2 42.99 37.25 75.92 40.12 104.59 81.67 28.66 41.56 28.66 114.63v266.5q0 74.51-48 116.06-48.02 41.55-128.24 41.55-83.1-0.01-128.23-42.27z"/>
					<path id="&lt;Compound Path&gt;" class="s0" d="m1320.21 1410.7q-45.12-50.14-45.12-141.85v-710.67q0-91.68 45.12-141.86 45.12-50.14 129.68-50.15 84.53 0.01 129.67 48.72 45.14 48.73 45.14 144.72v245.01h-160.48v-270.81q-0.01-24.35-14.33-24.35c-10.53 0-15.77 8.13-15.77 24.35v757.96q-0.01 25.8 15.77 25.8 14.32 0 14.33-25.8v-292.29h160.48v267.94q-0.01 193.43-174.81 193.43c-56.38 0-99.59-16.7-129.68-50.15z"/>
					<path id="&lt;Compound Path&gt;" fill-rule="evenodd" class="s0" d="m1695.61 1410.7q-45.12-50.14-45.13-141.85v-710.67q0.01-91.68 45.13-141.86 45.12-50.14 129.67-50.15 83.08 0.01 128.96 50.15 45.84 50.18 45.85 141.86v710.67q-0.01 91.71-45.85 141.85-45.88 50.16-128.96 50.15c-56.38 0-99.58-16.7-129.67-50.15zm144-118.93v-757.96q-0.01-24.35-14.33-24.35c-10.52 0-15.76 8.13-15.76 24.35v757.96q-0.01 25.8 15.76 25.8 14.32 0 14.33-25.8z"/>
					<path id="&lt;Compound Path&gt;" class="s0" d="m2100.39 1446.52l-91.7-1066.02h161.91l28.66 636.17 7.15 204.9h4.31l7.16-204.9 30.09-636.17h160.47l-91.69 1066.02z"/>
					<path id="&lt;Compound Path&gt;" class="s0" d="m2697.87 1446.52h-272.24v-1066.02h267.93v141.85h-107.46v305.19h96.01v136.12h-96.01v339.58h111.77z"/>
					<path id="&lt;Compound Path&gt;" fill-rule="evenodd" class="s0" d="m2727.94 1446.52v-1066.02h176.24q85.96 0.01 129.67 40.12 43.7 40.14 43.7 114.63v293.72q0 45.87-19.35 76.66-19.33 30.82-65.19 46.57v1.43q48.71 10.04 65.19 42.27 16.47 32.25 16.48 99.58v223.52q0 85.97 10.04 127.52h-159.05q-7.18-42.98-7.17-141.85v-239.28q0-20.05-6.43-28.65-6.47-8.61-20.79-8.61h-2.87v418.39zm169.08-543.04q10 0.01 15.76-7.88c3.8-5.24 5.72-15.05 5.72-29.37v-313.79q0-37.25-21.48-37.25h-8.61v388.29z"/>
				</g>
			</g>
			<filter id="f0">
				<feFlood flood-color="#ffffff" flood-opacity="1" />
				<feBlend mode="normal" in2="SourceGraphic"/>
				<feComposite in2="SourceAlpha" operator="in" />
			</filter>
			<g id="&lt;Group&gt;" filter="url(#f0)">
				<g id="JW8n0o.tif 00000008870826410469863100000000341524053292149151 ">
					<g id="&lt;Group&gt;">
						<path id="&lt;Compound Path&gt;" fill-rule="evenodd" class="s1" d="m1263.08 1776c5.42 6.37 34.89 17.55 45.96 27.04 36.02 30.87 27.75 80.83-0.09 114.25-36.7 44.05-164.65 95.16-221.16 115.44-24.15 8.66-97.6 35.41-106.5-3.65-6.39-28.01 18.12-41.14 30.1-60.02 10.9-17.17 33.3-109.17 33.14-130-0.21-29.05-35.3-22.66-49.76-37.23-10.06-10.12-6.71-35.42 2.11-46.22 16.27-19.93 52.59-7.81 62.73-26.18l37.86-176.11c-0.14-3.41 0.22-9.74-5.11-9.22-23.57 10.51-78.03 51.79-95.42 14.29-25.96-55.95 79.61-87.4 117.67-95.68 60.15-13.08 125.31-13.44 185.88-3.55 48.36-131.28 75.72-268.94 108.65-404.68 9.74-40.15 25.14-84.35 32.64-123.99 3.24-17.16 5.34-39.11-17.51-42.63-29.85-4.59-63.49 4.5-93.05 6.2-11.57 0.66-58.15-2.28-63.69 1.94-3.21 2.45-4.57 9.9-5.11 13.94-5.9 44.07-10.71 99.53-12.67 143.95-0.78 17.63-2.64 64.63 6.31 78.3 10.69 16.3 58.23 15.94 28.55 41.2-12.07 10.27-27.94 16.62-37.87 29.87-25.46 33.95-18.76 122.4-25.12 165.36-5.42 36.53-25.74 67.5-67.63 53.96-20.95-6.78-23.41-20.25-19.65-39.64 9.91-51.24 43.22-117.11 36.79-170.11-3.25-26.79-33.83-29.62-55.76-31.01-36.44-2.32-95.98-2.32-125.89 20.38-32.26 24.48-36.79 88.83-88.05 83.4-43.11-4.58-5.81-55.36-2.02-76.08 2.51-13.7-1.05-26.62 6.86-39.71 6.07-10.08 24-16.53 33.27-23.88 21.93-17.39 46.11-55.62 65.6-78.34 56.31-65.64 113.95-122.52 156.03-199.6 13.44-24.63 22.33-62.62 52.57-72.29 39.63-12.68 42.4 33.7 70.92 37 11.02 1.27 19.89-2.03 29.56-2.2 41.36-0.73 93.13 5.47 131.96-7.77 15.77-5.38 29.99-17.34 48.11-17.71 20.87-0.42 39 13.38 58.16 18.2 64.33 16.19 142.78-4.01 208.68 0.94 29.48 2.21 63.39 16.11 45.53 52.02-15.31 30.8-52.14 12.3-75.88 7.94-40.41-7.43-110.42-8.04-151.9-4.94-55 4.11-54.87 36.71-69.29 81-54.83 168.42-91.59 344.41-130.62 517.13 0.18 6.25 19.61 11.82 25.06 14.91 129.07 73.17 61.65 185.99-44.9 233.96-25.64 11.55-71.27 21.6-91.8 35.21-5.95 3.94-10.26 7.54-4.25 14.61zm-79.5-824.4c-8 2.01-31.69 29.87-38.69 37.69-29.91 33.37-69.96 80.16-95.07 116.6-34.42 49.95 20.05 36.12 50.53 35.71 23.97-0.32 56.54 7.99 74.1-14.84 10.5-13.65 17-47.06 18.2-64.34 2.3-33.41-1.02-69.85 1.97-103.73-1.07-5.78-5.28-8.54-11.04-7.09zm-47.69 765.25c10.35 10.35 70.86-9.31 85.82-13.75 44.8-13.31 166.39-52.73 190.71-90.85 21.05-33.02-12.31-54.32-38.46-66.7-7.64-3.61-27.9-12.65-35.21-13.51-7.53-0.88-13.77 2.74-23.46 0.18-7.17-1.9-11.38-9.04-18.44-11.18-27.37-8.28-91.91-11.29-117.1 2.56-19.28 10.61-27.85 59.83-32.74 81.56-3.99 17.77-21.69 101.11-11.12 111.69zm130.07 130.31c-16.71-17.11-104.1-31.52-129.41-32.53-36.02-1.45-38.73 13.97-46.7 44.49-4.34 16.6-17.2 74.25-8.36 86.71 2.78 3.93 8.21 5.45 12.93 5.67 20.93 0.96 128.16-45.31 150.37-58.13 15.89-9.18 39.04-27.9 21.17-46.21z"/>
						<path id="&lt;Path&gt;" class="s1" d="m2416.59 1932.97c10.65 7.4 43.48-24.96 50.52-32.61 53.84-58.49 109.83-140.05 156.34-205.62 20.3-28.62 46.5-88.52 90.78-60.34 40.41 25.72 1.32 66.07-21.52 87.24-66.93 62.05-113.39 108.66-169.21 182.18-63.67 83.85-111.25 139.65-117.83 250.48-1.5 25.35 7.07 67.9-17.39 84.19-21.09 14.03-48.08 9.53-58.42-14.58-17.02-39.66 22.1-120.04 31.72-162.36 11.25-49.44-17.32-108.8-29.31-157.52-19.4-78.82-25.8-154.77-56.16-231.69-11.97-30.31-23.73-73.28-65.59-60.2-17.25 5.39-23.04 19.26-28.59 34.91-24.11 68.02-43.83 150.07-63.06 220.57-19.19 70.37-37.38 141.14-54.67 212.01-8.61 35.31-25.4 140.87-43.83 163.59-15.38 18.96-42.24 23.61-60.06 5.1-26.04-27.06 4.25-71.33 14.13-99.68 35.32-101.31 57.44-213.51 84.69-317.46 12.68-48.39 32.55-98.12 41.12-147.26 3.14-17.99 11.93-61.26-11.49-67.68-39.13-6.09-78.45 4.71-117.7 6.27l-3.57 4.86c51.67 37.69 12.33 77.41-5.86 119.05-31.83 72.84-61.48 181.14-72.47 259.83-3.23 23.14-0.47 53.68-14.82 74.07-13.79 19.59-54.08 21.03-58.79-6.87-5.66-33.49 23.88-103.1 32.33-140.21 19.27-84.59 24.13-182.66 59.95-261.76 3.66-8.08 20.83-34.12 21.53-37.8 4.1-21.36-40.19-36.52-6.2-61.17 37.71-27.34 113.53-6.44 159.47-14.14 40.71-6.82 52.34-35.26 97.14-20.41 19.15 6.34 29.37 13.51 51.34 16.41 64.66 8.51 132.67-7.24 196.96-2.17 27.61 2.17 60.26 22.5 40 52.84-29.43 44.08-89.95-18.18-123.39 14.29z"/>
						<path id="&lt;Path&gt;" class="s1" d="m840.65 725.21c54.51-4.85 48.65 65.61 47.11 102.29-3.23 76.93-19.79 157.79-27.59 234.85-6.68 65.89-18.69 164.49-3.2 227.5 7.23 29.4 31.38 62.63-8.73 82.26-37.61 18.41-57.95-9.84-71.69-39.97-50.27-110.23-89.94-229.4-140.85-339.64l-9.51-7.48c-5.18 1.01-7.67 5.09-9.47 9.64-14.08 35.64-25.98 105-33.27 144.52-6.13 33.19-11.98 67.37-15.48 100.94-3.17 30.5 1.43 84.4-17 107.87-30.17 38.42-94.67 18.23-84.41-33.59 34.43-174.44 102.16-342.22 111.52-521.31 11.16-22.01 42.39-36.07 62.91-17.51 20.81 18.83 32.25 102.37 40.75 132.81 16.69 59.75 54.2 169.24 86.47 220.44 26.77 42.47 39.07 4.66 41.21-26.2 2.63-38.02-3.44-76.39-2.29-114.46 1.41-46.92 10.01-94.71 6.52-141.79-2.61-35.15-34.3-115.72 27-121.17z"/>
						<path id="&lt;Compound Path&gt;" fill-rule="evenodd" class="s1" d="m2022.02 922.14c61.21-8.2 186.52 0.58 243.97 23.82 117.69 47.63 86.65 151.72-11.87 199.71-69.52 33.86-124.43 27.14-193.5 43.62-6.93 1.66-17.41 2.48-19.09 10.68-0.93 9.59 25.63 31.05 32.91 39.05 38 41.8 74.88 91.23 117.45 128.09 26.56 23.01 99.18 58.29 56.21 100.58-36.09 35.54-81.77-16.12-105.97-42.37-26.88-29.16-102.99-137.15-132.89-146.52-23.6-7.39-34.24 18.53-40.61 36.53-17.65 49.88-28.01 106.42-43.62 157.45-10.5 34.34-22.57 101.24-72.37 78.94-38.62-17.29-5.71-58.58 4.25-83.54 26.66-66.83 55.99-160.4 69.74-230.82 5.73-29.37-3.23-31.21-5.51-54.64-2.47-25.47 14.26-27.16 28.43-40.97 19.46-18.96 22.62-56.31 30.04-82.14 5.03-17.52 15.84-36.06 17.51-54.43 3.17-35-32.89-75.3 24.92-83.04zm13.52 206.56c4.91 2.4 10.09 2.75 15.49 2.43 22.58-1.31 60.8-10.45 84.16-15.45 42.29-9.07 136.66-26.87 140.98-81.47 3.31-41.77-79.43-63.45-110.97-67.93-80.58-11.45-96.43 19.33-116.2 88.65-3.09 10.83-17.36 67.49-13.46 73.77z"/>
						<path id="&lt;Path&gt;" class="s1" d="m1601.81 1346.33c7.18 5.97 18.56-0.01 25.48-3.95 40.27-22.86 115.32-132.61 142.9-174.62 26.3-40.09 75.39-115.69 84.45-161.08 5.56-27.86-2.47-80.27 37.62-85.13 47.57-5.77 45.13 41.99 41 74.82-16.85 133.67-84.94 264.59-92.79 400.37-2.11 36.41 14.48 107.24-33.8 116.47-64.46 12.32-43.29-77.76-35.44-113.72 9.46-43.29 33.27-99.02 37.2-140.59 2.27-24.05-4.26-37.55-25.21-16.73-50.84 50.52-95.62 136.87-165.76 164.45-108.07 42.51-80.54-121.91-67.76-177.77 15.41-67.29 78.31-248.3 137.55-283.67 18.68-11.15 53.58-10.51 57.52 16.12 3.48 23.55-46.21 72.59-60.64 92.92-44.28 62.41-88 187.91-89.33 264.27-0.12 6.91 1.73 23.46 7.01 27.84z"/>
						<path id="&lt;Compound Path&gt;" fill-rule="evenodd" class="s1" d="m868.16 1408.85c37.01-3.97 44.75 32.68 47.01 61.97 4.9 63.39-13.6 142.85-14.88 209.41-0.32 16.63-2.14 45.81 0.59 60.96 3.51 19.52 25.34 17.13 38.35 25.16 23.96 14.79-15.56 28.98-25.97 36.9-59.01 44.86-20.29 146.13-47.77 206.21-11.38 24.89-39.27 41.14-66.1 30-42.07-17.47-3.3-78.78 4.67-108.33 6.89-25.57 14.42-67.99 15.83-94.22 1.26-23.42 0.58-31.51-24.34-34.89-19.19-2.61-48.06-3.98-67.65-4.33-29.65-0.54-77.33 0.99-99.57 23.39-24.24 24.41-40.25 103.59-90.8 78.01-32.93-16.67 1.8-50.36 6.21-71.57 2.8-13.5-2.27-31.76 5.11-43.56 4.99-7.96 32.7-20.44 42.48-29.49 24.68-22.83 54.55-61.36 77.24-87.88 42.55-49.73 93.59-108.46 129.78-162.33 18.64-27.73 33.74-91.54 69.81-95.41zm-29.68 160.85c-7.02-7.5-23.19 8.53-29.25 13.16-31.43 43.08-74.02 83.18-104.52 126.21-7.25 10.22-33.8 47.3-8.76 50.71 18.98 2.58 73.46 1.88 93.24-0.13 39.33-3.97 46.59-47.2 49.76-79.36 2.45-24.79 6.06-64.93 4.35-88.96-0.35-4.94-1.83-18.42-4.82-21.63z"/>
						<path id="&lt;Compound Path&gt;" fill-rule="evenodd" class="s1" d="m2614.92 943.19c30.78-2.46 40.7 26.05 42.76 51.45 7.13 87.57-26.37 184.28-16.31 268.16 4.61 38.42 20.46 24.25 41.61 38.81 23.01 15.83-27.21 35.77-36.68 45.61-44.08 45.8-10.4 183.48-48.89 217.79-21.63 19.27-73.18 18.16-73.24-18.02-0.04-22.19 21.9-77.58 27.96-103.44 3.93-16.79 8.09-34.17 10.04-51.33 4.68-41.27 4.96-52.66-38.92-57.91-41.63-4.98-121.33-6.32-152.5 25.29-24.74 25.09-32.75 85.03-79.87 77.87-46.1-7-10.3-50.77-4.3-73.11 2.93-10.9 1.72-18.4 3.28-28.47 3.63-23.41 20.16-24.24 36.14-35.83 27.44-19.88 59.04-60.8 81.82-87.52 46.45-54.46 112.53-130.65 146.51-192.17 14.95-27.05 22.83-74.17 60.59-77.18zm-185.35 348.26c9.13 8.99 33.7 2.61 44.9 2.52 39.42-0.3 82.39 15.49 100.2-33.17 7.77-21.21 10.5-92.17 11.15-117.96 0.59-23.44 5.15-54.95-26.51-30.72-27.05 20.7-104.99 120.46-123.52 151.65-3.71 6.23-12.33 21.66-6.22 27.68z"/>
						<path id="&lt;Path&gt;" class="s1" d="m2834.98 991.92c10.29-2.14 22.28 0.53 30.94 6.21 35.27 23.09 11.5 79.31 1.97 111.32-36.73 123.36-80.85 244.74-116.06 368.65-2.69 14.54-2.9 24.47 12.17 30.37 20.25 7.93 79.93 11.57 102.24 9.91 29.14-2.18 93.1-27.26 89.97 22.22-4.49 71.16-107 37.21-151.25 34.87-25.72-1.37-56.85-0.87-82.75-0.01-22.03 0.74-83.34 16.79-91.02-12.54-8.96-34.27 24.38-48.49 40.09-72.22 18.02-27.21 22.61-59.85 32.45-90.31 31.05-96.04 69.01-196.48 84.64-296.35 5.54-35.35 0.43-102.52 46.61-112.12z"/>
						<path id="&lt;Path&gt;" class="s1" d="m1693.85 1521.09c11.02-0.42 25.85 6.11 33.19 14.38 19.01 21.42 6.38 57.58-0.37 81.91-36.05 130.12-87.54 258.82-122.4 389.81-3.72 20.12-2.22 27.55 18.01 33 17.95 4.83 64.96 9.75 83.49 9.22 22.97-0.66 80.57-18.43 97.67-1.95 13.93 13.43 4.6 43.25-8.53 55.06-25.79 23.2-67.26 9.24-97.65 6.63-38.77-3.33-79.34-6.56-118.28-4.48-32.57 1.74-108.02 24.93-95.42-34 3.52-16.44 19.87-26.07 29.79-37.95 17.74-21.24 27.03-44.35 35.48-70.36 40.63-125.12 78.81-251.04 97.08-381.26 3.79-27 16-58.77 47.94-60.01z"/>
						<path id="&lt;Path&gt;" class="s1" d="m1504.55 1595.35c18.35-17.26 58.65-16.54 68.04 9.85 13.06 36.69-27.18 88.15-40.76 122.18-26.57 66.54-50.06 161.65-61.62 232.58-4.9 30.08 0.44 87.06-42.2 91.32-37.74 3.77-33.59-36.39-29.4-61.3 9.36-55.59 34.83-112.75 46.99-168.9 10.63-49.14 26.01-194.75 58.95-225.73z"/>
					</g>
				</g>
				<path id="&lt;Compound Path&gt;" fill-rule="evenodd" class="s1" d="m982.55 976.51q-2.72 17.34-15.52 17.89-4.12-1.35-5.72-5.62l0.61-5.15q0.18-6.91 9.46-12.91l6.78-0.41q1.31 0.01 4.39 6.2zm-30.4 129.9q-5.05 14.98-14.77 15.23-9.7 0.27-8.78-9.44 3.44-13.96 13.58-14.06l5.6-0.28q2.64 0.61 4.37 8.55zm-159.69 25.1v1.17l-2.35 0.13q-1.92 0.31-2.06-2.21l2.37-1.31q2.49 0.01 2.04 2.22zm-30.46 3.84l-0.45 2.21-1.91 0.28q0.01-2.5 2.36-2.49zm97.96 38.8q-2.15 21.16-25.26 24.75-12.79 0.53-13.17-19.33-18.2-7.13-17.43-16.39-0.87-2.21-0.71-5.15 8.62-19.82 25.09-20.65 21.74 5.98 21.59 7.75l-0.01 1.17-2.25 11.46q13.06 6.67 12.15 16.39zm84.94-20.99l-0.15 2.94q-2.71 14.84-13.74 15.09l-3.09 0.43q-8.53 0.26-7.62-9.44l0.62-5.15q6.51-10.12 15.04-10.39 5.59-0.41 8.94 6.52zm-178.39 28.99l-3.53 2.62-2.94-0.15q-1.92 0.29-3.22-3.4l0.44-0.88q0.01-2.5 3.84-4.25l3.09-0.43q2.35 0.01 2.32 6.49zm-47.35 1.86q-2.84 6.03-4.75 6.31l-5.58 0.42q-1.62-0.3-3.81-4.73l0.17-4.26q1.62-3.37 8.26-6.3 6.61 0.18 5.71 8.56zm36.22 23.53l-0.31 3.39q-0.3 1.62-4.72 4.97l-5.6 0.43q-1.9 0.28-6.25-13.7-5.45 0.42-6.44-11.95 4.61-12.18 13.74-12.74 7.35-0.26 10.09 12.99-2.81 4.7-2.83 10.14l-0.74 1.46zm-145.94-27.8q1.91 1.05 1.02 2.94 2.49 1.2 3.39-0.86l3.51 3.99q-1.64 3.53-16.93 1.84l-2.05-1.03 1.04-1.91zm183.68 5.75l-0.29 1.76q-0.17 1.62-3.56 3.67l-2.34 0.14q-1.92 0.28-1.77-2.66l0.32-3.38q0.75-2.65 2.65-2.93l2.2 0.3q1.48-0.44 2.79 3.1zm-87.58 14.94l-0.61 5.15q-0.15 1.77-3.54 3.81l-3.09 0.28q-1.76-0.15-3.81-4.72l-0.13-2.5q0.44-2.2 5.02-5.43 6.33 0.48 6.16 3.41zm48.83 37.56v1.33q-1.68 14.1-17.29 19.34l-4.12-0.01q-4.41 0.27-14.38-9.04l-9.1-4.89-6.77 2.91q-4.27 0.29-7.92-7.39l0.76-5.57q12.58-18.04 14.49-18.33l2.5-0.14q2.48 3.69 3.18 12.37 2.52-0.14 3.67 1.05 3.68-0.14 20.04-5.67 16.02 1.55 14.94 14.04zm-6.86 23.8l0.14 1.18q-0.3 1.76-3.84 4.24h-1.17q-1.77-0.15-3.08-3.68l0.45-1.04q0.01-2.49 3.83-4.24l0.74-0.29q1.63 0.15 2.93 3.83zm-87.7 7.73q-0.15 1.62-3.98 3.52l-4.42 0.28 0.61-3.83q0.15-1.76 3.54-3.8h1.18q1.77 0.16 3.07 3.83zm41.16 6.5l-0.16 1.62q-0.44 2.2-2.35 2.63l-1.34-0.01q-2.33 0-1.75-2.64l0.01-1.18q0.45-2.21 2.37-2.49h1.18q2.2 0.3 2.04 2.07zm-49.3 5.83l-0.61 6.32q-0.46 5.16-15.63 8.17-35.56 28.98-36.01 31.18-0.03 5.3 1.57 10.9-2.73 23.82-25.26 24.6-18.06-3.45-16.39-20.06 6.42-21.46 20.55-22.12l15.29 0.49 34.08-27.22q5.31-2.33 11.25-15.11l8.68-0.7q1.18-0.14 2.48 3.55zm-34 6.33v1.18q-0.3 2.2-3.7 4.25l-2.2-0.46q-1.48 0.58-2.78-3.09v-1.18q0.45-2.21 3.7-4.24l2.5 0.01q1.16-0.16 2.48 3.53zm106.66 31.47v1.17q-1.69 15.44-22.73 19.48-11.63 0.54-14.04-22.71 0.45-2.2 2.98-7.64-1.61-4.27-1.15-7.65l0.45-2.21q0.79-10.88 15.5-13.02 9.27-0.56 10.81 18.14 7.22-0.28 8.18 14.44zm39.93-19.11q-1.18 2.5-3.09 2.78-1.77-0.14-1.76-2.66 0.46-2.2 2.37-2.48 2.2 0.45 2.48 2.36zm-1.5 80.6q-0.44 2.2-2.36 2.49-1.91 0.29-1.75-2.65 0.3-2.21 2.36-2.5 2.21 0.46 1.75 2.66zm-173.71 38.28l-0.62 5.14q-2.66 4.7-7.08 4.97-5.14-1.78-4.38-7.37 2.38-4.85 3.55-4.85l6.77-0.55q2.2 0.45 1.76 2.66zm8.17 14.59l-0.45 0.88q0.3 2.07-3.54 3.81l-0.73 0.3q-2.36-0.01-1.91-2.22l0.16-2.8q0.46-2.2 2.36-2.49l2.36-0.14q1.76 0.16 1.75 2.66zm-24.75 8.28q-0.76 6.76-5.17 8.8l-5.45-0.02q-2.21-0.45-3.35-5.74 1.77-5.15 5.91-7.49l4.4-0.41q1.63 0.3 3.66 4.86zm24.1 8.63q-5.37 15.42-15.51 15.54-9.27 0.54-12.01-11.53 6.23-16.16 17.86-16.84 10.72 2.69 9.66 12.83zm8.25-6.29l-0.45 2.2q-0.59 2.65-2.51 2.93l-1.18 0.15q-1.32 0-2.62-3.55v-1.32q0.6-2.64 2.65-2.93l2.07 0.45q2.06-0.28 2.04 2.07zm-42.99 10.56l-0.6 5q-5.78 9.99-11.81 10.11l-3.24 0.28q-1.62-0.16-3.81-4.72l0.63-7.51q5.76-8.66 11.8-8.78 5.15-0.71 7.03 5.62zm-27.1 10.64q-0.75 2.78-2.67 3.07-2.2-0.45-1.75-2.65 0.45-2.21 2.37-2.5 2.2 0.46 2.05 2.08zm14.08 10.78l-1.07 6.03q-0.77 11.02-15.05 13.33l-2.5 0.13 0.15 1.18 1.44 8.39q-8.19 21.44-21.33 34.33-15.92 9.95-17.42 17 1.45 6.02 0.99 9.41-2.74 23.97-31.02 31.06-27.63-3.8-25.18-28.34 2.89-26.76 35.43-32.52 2.5-0.13 17.75-22.86 25.38-21.09 32.59-22.53 2.01-22.35 15.25-22.73 7.33 2.08 9.97 8.12zm-4.49 19.99l-0.01 1.18q-0.6 2.79-2.37 2.49l-1.18 0.15q-2.35-0.01-1.9-2.22l0.15-1.62q0.45-2.2 2.37-2.49l1.17-0.14q2.21 0.44 1.77 2.65zm-0.18 42.95l-0.61 3.82q-0.6 2.8-2.36 2.5l-4.41 0.41q-1.91 0.3-1.75-2.64l0.44-3.39q0.16-1.61 3.7-4.26l2.2 0.46q1.48-0.44 2.79 3.1zm-29.04 51.07l-0.01 1.18q-0.6 2.64-2.35 2.48l-2.36 0.15q-1.92 0.28-1.75-2.66v-1.18q0.3-2.21 2.22-2.49l2.5-0.13q2.2 0.44 1.75 2.65zm-88.25-0.36q-0.6 2.65-2.37 2.5-1.9 0.28-2.04-2.08 0.45-2.2 2.35-2.48 2.21 0.44 2.06 2.06z"/>
				<path id="&lt;Compound Path&gt;" fill-rule="evenodd" class="s1" d="m2266.54 2217.03q0.1 1.49-1.15 1.75l-2.91 0.6-0.3-1.45q-0.3-1.45 1.15-1.75l1.46-0.3q1.5-0.04 1.75 1.15zm14.69 1.5l0.3 1.45-0.73 0.15-0.3-1.45zm11.69 8.94l0.3 1.45q-0.73 0.16-0.88-0.57l-1.3 1.02-0.72 0.15q-1.45 0.31-1.76-1.15l1.31-1.02q1.4 0.46 3.05 0.12zm-3.43-12.91l-1.3 1.02-1.03-1.3 1.3-1.03zm6.48 35l0.3 1.45-0.72 0.14-0.3-1.45zm3.08-18.04q0.2 0.99-2.88 4.38l-1.03-1.3-0.15-0.73q-0.29-1.45 1.15-1.75zm9.78 50.96l0.45 2.18q-1.45 0.3-1.75-1.16zm-24.64-126.53l0.14 0.73q0.04 1.5-1.15 1.75l-1.02-1.3-0.15-0.73zm13.74 59.15l0.3 1.46-2.17 0.44-0.3-1.45zm2.43 15.4l0.15 0.72-1.45 0.3-0.15-0.72zm4.55 7.38l0.45 2.18-0.72 0.15q-1.46 0.3-1.76-1.15l-0.15-0.73zm-3.15-15.24l0.3 1.45-1.45 0.3-0.3-1.45zm3.96 4.48l-1.88 1.9q-1.06 0.22-2.63-1.73l1.3-1.02 1.45-0.3q1.51-0.04 1.76 1.15zm-7.01-26.56l0.3 1.45-0.72 0.15q-1.45 0.31-1.75-1.15zm5.6 12.47q0.22 1.05-1.73 2.62l-0.72 0.15q-1.06 0.22-2.63-1.72l1.88-1.9 1.45-0.3q1.51-0.04 1.75 1.15zm-3.22-4.63q0.03 1.5-1.16 1.75l-1.02-1.3zm-6.76-36.38l-1.31 1.02-0.72 0.15-0.45-2.17 0.72-0.15q1.5-0.1 1.76 1.15zm117.09 24.92q-0.17 3.82-1.42 4.08-0.5-1.41-1.76-1.15-1.39 0.56-1.15 1.75 2.33 0.28 3.08 3.91l-1 2.48 5.56 4.9-2.3 3.51-4.66-0.55-1 2.47 1.02 1.3-0.42 1.61q1.82 4.16 3.08 3.9-0.3-1.45 1.15-1.75 1.49-0.11 1.75 1.15-1.28 4.81-1.13 5.53 1.01 1.24 1.18 2.03l-1.88 1.9q-0.22-1.06-2.62-1.73 0.09 1.5-1.16 1.76l-2.47-1q0.21 1.05-1.73 2.62 1.94 2.08 2.2 3.33l-2.18 0.45q-0.35-1.71-3.65-3.03-0.55-2.64-4.1-5.2 1.11-0.24 2.3-3.51l-0.15-0.72-4.78 2.5-1.03-1.3q0.44-1.54 0.28-2.33l-1.61-0.43-2.17 0.45q-0.98 0.27-2.16 4.23-3.63 0.75-4.53-3.6-5.2 3.14-5.63 5.7l1.9 1.88q0.15 0.73-0.57 0.88 1.01 1.23 1.17 2.02-0.44 1.54-0.27 2.33l2.18-0.45q-0.35-1.65 1.27-4.8l-0.15-0.73q-2.18 0.45-2.47-1l-0.16-0.73q-0.3-1.45 1.16-1.75 3.87 0.43 4.53 3.61l1.45-0.3 2.45-2.78 1.45-0.3 0.45 2.18q0.22 1.05-1.72 2.62l-2.48-1q0.21 1.06-1.73 2.63 1.67 3.44 2.93 3.18-0.19-0.93 5.63-5.71 1.49-0.1 1.75 1.16-0.44 1.53-0.27 2.32 1.01 1.24 1.17 2.03l-1.6-0.43-1.45 0.3 1.9 1.88q-2.67 2.07-4.05 2.35l-1.03-1.3-0.15-0.72 0.43-1.61-2.91 0.6q0.46 2.25-2.73 5.11-1.45 0.3-1.75-1.15-0.3-1.46 1.88-1.9l-0.15-0.73-2.18 0.45q-1.39 5.58-2.58 5.83-1.45 0.3-1.75-1.15 0.54-1.07-0.02-3.78-1.59 0.33-3.06-0.13l0.43-1.6-0.15-0.72-1.45 0.3-1.88 1.9q-1.11-1.01-2.95-6.96l-1.45 0.3q0.3 1.45-0.43 1.6l1.03 1.3 0.15 0.73q0.09 1.49-1.16 1.75l-1.6-0.42-0.42 1.6 0.15 0.72 1.02 1.3-2 4.96q-4.77-1.08-4.96-2l3.61-4.53-2.48-1-0.73 0.15-1.3 1.02-1.02-1.3q1.94-4.94 4.18-5.41l-0.3-1.45q-2.18 0.45-2.48-1l0.73-0.15-1.03-1.3-0.75-3.63 0.73-0.15 3.77-0.03-2.77-2.45 0.42-1.6-1.45 0.3q0.23 1.12-0.85 3.2l-3.78 0.03-1.45 0.3q0.2 0.99-1.28 4.8l2.48 1q-0.3-1.45 1.15-1.75l2.18-0.45 0.15 0.73q0.21 1.06-1.73 2.63l1.03 1.3q-1.02 4.75-2.01 4.95-1.45 0.31-1.75-1.15l-0.02-3.78q-2.18 0.46-2.63-1.73l-1.45 0.3q-1.46 0.31-1 2.48 1 1.24 1.17 2.03l-0.72 0.15q-0.73 0.15-0.88-0.58-2.73 1.46-6.14 6.58l-1.6-0.43q0.72-7.45 2.79-8.15 1.49-0.1 1.75 1.15 1.92-0.67 2.15-4.23l-2.9 0.6 0.42-1.6q-1.01-1.23-1.17-2.03 3.57-8.3 6.48-8.91l-0.45-2.17-1.3 1.02-2.18 0.45q0.42 2.05-3.45 5.26 0.15 0.73-0.58 0.87-1.53-0.43-2.26-0.28-1.76 2.5-1.7 6.4l-0.73 0.15q-0.15-0.72-0.88-0.57l0.43-1.6-0.45-2.18-1.45 0.3q0.44 2.18-2.01 4.95 1.01 1.24 1.18 2.03l-1.3 1.03-3.78 0.02-0.3-1.45 1.6 0.43q-0.15-0.73 0.58-0.88l-1.03-1.3q0.44-1.53 0.28-2.33-0.73 0.15-0.88-0.57l-1.3 1.02-2.48-1q-1.73 2.63-1.25 8.58l-0.73 0.15q-1.45 0.3-1.75-1.15l1-2.48q-2.18 0.46-2.48-1 0.71-3.58 2.16-4.23l5.8-1.2-1.47-3.48q4.35-0.9 3.75-3.8l-1.02-1.3-0.03-3.78q1.51-0.04 1.75 1.15-0.72 0.15-0.57 0.88l1.45-0.3 1.3-1.03q1.41 0.47 3.06 0.13l-1.33-2.76q0.44-1.53 0.28-2.32-2.08 1.94-3.33 2.2l-1.03-1.3q-0.78-3.76 5.57-5.7 0.3 1.46 1.75 1.15l1-2.47q-1.54-0.44-2.33-0.28-1.24 1.01-1.96 1.16-0.23-1.12-3.5-2.3l-0.73 0.15q-0.72 0.15-2.83 11.94l-0.72 0.15-1.03-1.3-0.15-0.73q-0.3-1.45 1.88-1.9l-0.91-4.36-1.47-3.47-1.45 0.3-1.88 1.9-3.78 0.02q0.03 1.51-1.15 1.75l-1.03-1.3q3.07-7.44 8.09-8.48l-0.15-0.73-1.03-1.3-1.3 1.03-0.72 0.15-4.24-2.16-2.6 2.05q-8.9 0.89-9.31-1.1-0.19-0.92 2.88-4.38l2.48 1 0.72-0.15q-0.59-2.9 0.85-3.2 1-0.2 2.63 1.73-0.45 1.47-0.12 3.05l3.63-0.75 2.47 1 0.73-0.15-1.03-1.3q-0.29-1.45 1.15-1.75l0.73-0.15 0.9 4.35 2.18-0.45q-0.45-2.17 1-2.47 1.51-0.04 1.75 1.15l-1.3 1.02q1.02 1.31 1.18 2.03 6.47-1.33 5.86-4.24l-3.88-4.49q1.45-0.3 1.15-1.75-1.95-2.08-2.81-6.24 1.54 0.44 2.33 0.28l-0.15-0.73q-0.98-1.1-1.33-2.75l-0.15-0.73q1.04-2 0.79-3.19l0.73-0.15 2.47 1 0.73-0.15-0.45-2.18q-2.9 0.6-3.19-0.78l-0.15-0.73q-0.3-1.44 1.16-1.75l-1.63-4.2-3.41 1.46-0.73 0.15-0.45-2.18q-0.22-1.05 1.73-2.62l2.41 1.01 1.88-1.9 0.72-0.15 1.6 0.42 0.03 3.78 0.3 1.45q0.3 1.46 1.75 1.16l2.3-3.51q1.49-0.1 1.75 1.15l0.16 0.73-2.88 4.38q1.61 4.14 3.06 3.84-0.2-0.99 1.87-5.62l-1.48-3.48 0.73-0.15q3.15 1.62 5.53 1.13l0.72-0.15q1.45-0.3 1.16-1.75-9.17-0.38-9.47-1.83l-0.15-0.73q1.17-4.02 2.16-4.23l1.02 1.31q-1.41 0.5-1.15 1.75l3.21 0.85q2.02-1.17 1.87-1.9-0.39-1.91-3.22-4.63 0.72-0.15 0.57-0.88l1.6 0.43q1.45-0.3 1.15-1.76-0.5-2.43-3.37-5.35l1.3-1.03 0.72-0.15 1.6 0.43-0.42 1.6 0.15 0.73 0.72-0.16 2.46-2.77q0.6-0.12 2.62 1.72 0.15 0.73-0.57 0.88l1.63 4.21 2.17-0.45-1.02-1.31-0.15-0.72 0.72-0.15q3.13 0.46 3.36 1.58l-2.46 2.77q-1.4-0.46-3.05-0.12l0.15 0.72q0.33 1.59 1.33 2.76-0.44 1.54-0.28 2.32 0.15 0.73 7.41-0.77l-0.15-0.73 1.45-0.3 0.15 0.73-0.42 1.6 1.6 0.43q-0.15-0.73 0.57-0.88-1.83-3.88-3.37-5.35-0.25-1.19 2.3-3.51 0.15 0.73 0.87 0.58l-0.42 1.6q1.01 1.23 1.18 2.03l0.72-0.15q0.39-0.08 3.03-3.66l4.35-0.9-0.3-1.45q-1.45 0.3-1.6-0.42 0.43-1.6 0.28-2.33-0.72 0.15-0.88-0.58l1.3-1.02q1.54 0.43 2.33 0.27-0.34-1.64 3.18-2.93l-1.03-1.3 0.43-1.6-0.73 0.15-1.3 1.03q-3.13-0.52-3.35-1.58l1.45-0.3 3.78-0.02q-0.15-0.73 0.57-0.88-1.17-2.03-1.9-1.88-1.23 1.02-2.02 1.18-0.22-1.06 1.72-2.63 0.86-0.18 4.53 3.61l0.73-0.15 1.87-1.91q1.5-0.1 1.76 1.16l0.15 0.72q-2.3 3.5-2 4.96l-1.61-0.43-1.45 0.3q0.25 1.19-1 2.48l-1.6-0.43q-2.08 1.95-3.33 2.2l1.47 3.48q-0.72 0.15-0.57 0.88 2.18-0.45 2.48 1l0.15 0.73q-0.79 0.16-2.03 1.17-1.53-0.43-2.33-0.27l0.3 1.45 5.08-1.05 1.6 0.42q-0.14-0.72 0.58-0.87l1.03 1.3-2.58 5.83q0.23 1.12 3.49 2.24l0.72-0.15-0.28-1.39 2.18-0.45-1.6 3.29 5.26 3.46q-0.38-1.85 5.93-4.26l2.78 2.46q0.23 1.12-4.46 7.73l3.51 2.3q-0.23 2.53-2.13 8.01l3.63-0.75q0.72-0.15 0.57-0.87 8.72-1.8 9.61 2.55l-1.3 1.03-0.72 0.15-3.78 0.02q0.15 0.73-0.58 0.88-0.2-0.99-2.63-1.73 0.31 1.45-1.88 1.9l1.03 1.3q-1.12 0.23-2.3 3.51 0.21 0.99 4.8 1.27-0.95 2.68-0.55 4.66 1.85-0.38 3.93 0.7l0.73-0.15q-0.75-3.63 4.33-4.68l2.9-0.6q1.51-0.03 1.75 1.15zm-109.91-12.1l-1.3 1.03-1.45 0.3-0.15-0.73q-0.3-1.45 1.15-1.75 1.51-0.03 1.75 1.15zm8.86 42.83l-1.3 1.03-0.73 0.15-0.15-0.73q-0.3-1.45 1.16-1.75zm-7.81-37.75l0.15 0.73-1.45 0.3-0.15-0.73zm14.09 64.46l-1.31 1.02-1.02-1.3 1.3-1.02zm-5.8-20.75q0.03 1.5-1.16 1.75l-0.72 0.15q-1.46 0.3-1.75-1.15l1.87-1.9q1.51-0.04 1.76 1.15zm-13.7-73.55l0.3 1.45-1.45 0.3-0.3-1.45zm16.85 44.89q1.35 6.53-4.46 7.73 1.66 2.69 2.78 2.46-0.15-0.73 0.58-0.88l0.3 1.45-3.63 0.75q-1.45 0.3-1.76-1.15 0.45-1.53 0.28-2.33-1.45 0.3-1.75-1.15-0.3-1.45 1.15-1.75 1.54 0.44 2.33 0.28 0.02-4.55 1.27-4.81zm-12.07-25.44l0.29 1.38-0.73 0.15-0.28-1.38zm14.07 42.44q0.22 1.05-1.73 2.62l-0.72 0.15q-1.06 0.22-2.63-1.72-0.3-1.46 1.15-1.76l2.18-0.45q1.5-0.03 1.75 1.16zm-13.07-44.92l0.3 1.45-0.72 0.15-0.3-1.45zm17.19 75.85q0.03 1.51-1.15 1.75l-0.3-1.45zm2.66-38.39q-1.93 2.67-3.18 2.93 0.34 1.64 1.32 2.75l-0.7 3.93-1.6-0.43-1.45 0.3 0.3 1.45q2.17-0.45 2.48 1.01-3.1 3.67-3.76 3.8l-1.9-1.88-0.15-0.72q3.45-5.26 2.7-8.89-1.45 0.3-1.75-1.15 1.23-4.04 5.78-4.98zm-4.33 26.63l0.3 1.45-0.72 0.15-0.3-1.45zm4.52 3.6l0.31 1.46-2.18 0.45-0.3-1.46zm-5.8-42.7l0.15 0.73-0.43 1.6q-3.12-0.46-3.35-1.58-0.3-1.45 1.15-1.75l0.72-0.15q1.51-0.04 1.76 1.15zm17.75 93.22q-0.43 1.53-0.27 2.32l-1.45 0.3-0.15-0.72q-0.31-1.46 1.15-1.75zm-8.55-41.38l0.3 1.45-0.73 0.15-0.3-1.45zm6.11 22.2l-1.3 1.03-0.46-2.18q1.5-0.1 1.76 1.15zm-19.67-98.8l0.15 0.72-1.45 0.3-0.45-2.17q1.49-0.1 1.75 1.15zm4.59 14.88l0.45 2.17-2.17 0.45-0.15-0.72q-0.31-1.46 1.15-1.75zm8.98-4.13q0.66 3.16-0.25 6.11-4.77 0.22-9.03-3.44l-0.15-0.72 2.18-0.45-0.16-0.73q-2.57-2.49-4.22-2.15l-0.91-4.36 0.73-0.15q2.33 0.28 2.48 1l0.45 2.18 1.6 0.43q0.52-3.14 4.48-3.96l0.72-0.15 0.31 1.46q0.3 1.45-3.91 3.07l0.15 0.73q1.12-0.23 4.08 1.43zm12.38 92.81q0.23 1.12-2.31 3.5l-0.72 0.15q-0.17-4.5 1.28-4.81 1.49-0.1 1.75 1.16zm-17.06-75.19q-1.4 0.56-1.15 1.75l1.45-0.3zm10.61 43.98l0.15 0.72q0.03 1.51-1.15 1.75l-1.03-1.3 1.3-1.02zm-0.48-5.96l-1.3 1.03-1.02-1.31 1.3-1.02zm-5.38-69.97l-1.3 1.03-0.73 0.15-0.3-1.45q-2.6 2.05-2.17 4.16l-5.23 0.32-0.28-1.38q0.99-0.21 6.66-4.41 3.12 0.46 3.35 1.58zm-6.8 7.39l-2.18 0.45q-0.3-1.45 1.15-1.75zm-9.91-51.62l-1.3 1.03-1.03-1.31 1.3-1.02zm16.45 72.22l-1.45 0.3 0.15 0.73 1.45-0.3zm-9.34-52.5l0.15 0.73-0.73 0.15q-1.44 0.29-1.75-1.15l1.3-1.03zm10.94 52.92q-1.05 0.22-1.72 2.63l0.3 1.45q1.65-0.34 1.42-4.08zm7.68 40.8l0.15 0.73-1.45 0.3-0.15-0.73zm7.8 37.75l0.15 0.72-1.45 0.3-0.15-0.73zm-4.65-44.45l-0.42 1.6q-4.55-0.02-4.8-1.27l-0.16-0.73 1.46-0.3q2.08 1.08 3.92 0.7zm-4-12.04l-2.18 0.45 0.15 0.73 2.18-0.45zm-0.8-11.19l-1.45 0.3 0.15 0.73 1.45-0.3zm16.63 76.79l-1.3 1.02-1.02-1.3 1.3-1.02zm-28.31-143.94q0.11 1.49-1.09 1.73l-1.02-1.3zm17.78 89.36l0.15 0.72-1.45 0.3-0.15-0.72zm1.51-3.35l-1.3 1.03-1.38 0.29-0.16-0.73q-0.29-1.45 1.09-1.74 1.51-0.03 1.75 1.15zm-11.05-46.15l-0.66 0.14 0.3 1.45 0.66-0.14zm8.39-7.04q-2.33-0.26-2.48-1-6.81 3.69-6.21 6.59l3.35 1.57q2.03-1.17 1.88-1.9-1.01-1.23-1.18-2.02l1.31-1.03 1.6 0.42-0.43 1.61 0.3 1.45 1.45-0.3zm-2.68 12.67q-2.18 0.45-2.78-2.45l-0.72 0.15 0.17 4.5 2.18-0.45q1.45-0.3 1.15-1.75zm3.5 24.25l-1.6-0.42-0.42 1.6 0.15 0.73 0.72-0.15q1.45-0.3 1.15-1.76zm3.23 4.63l-2.18 0.45q0.34 1.66-0.12 3.06l0.15 0.72 0.72-0.15q-0.22-1.05 1.58-3.35zm10.48 47.04l0.3 1.45-1.46 0.3-0.3-1.45zm-14.9-79.42l-0.73 0.15q-1.39 0.56-1.15 1.75l0.15 0.72 2.18-0.45zm2.8 6.23l-2.18 0.45 0.3 1.45q1.3-1.03 2.03-1.18zm12.45 60.25l-1.3 1.03-1.03-1.3 1.3-1.03zm7.48 32.51l0.15 0.73q0.1 1.49-1.15 1.75-1.45 0.3-1.75-1.15-0.22-1.05 1.73-2.63zm-24.02-141.8q-3.06 3.52-2.73 5.11l-1.45 0.3q-0.99 0.2-2.63-1.73 1.17-1 2.75-1.32l-1.02-1.31-0.3-1.45 1.45-0.3q0.3 1.45 3.93 0.7zm-1.78 17.02l-2.18 0.45q-0.3-1.45 1.15-1.75zm-0.2-8.29l0.3 1.45-2.76 1.33-0.3-1.45zm14.29 76.45l-1.45 0.3 0.15 0.73 1.46-0.3zm11 38.6l0.45 2.17q0.21 0.99-2.88 4.38l-1.03-1.3-0.75-3.63q-0.21-1.05 1.73-2.62l0.73-0.16q1.49-0.1 1.75 1.16zm4.1 27.15l0.3 1.45q0.1 1.49-1.15 1.75l-1.46 0.31-0.15-0.73q0.43-1.6 0.28-2.33zm-16.05-77.66l-1.45 0.3 0.3 1.45 1.45-0.3zm-11.14-61.21l0.15 0.73-2.18 0.45-0.15-0.73zm3.16 18.96l-1.45 0.3 0.15 0.72 1.45-0.3zm14.85 71.86l0.45 2.18q-1.45 0.3-1.75-1.15zm7.91 30.91q0.1 1.5-1.16 1.76l-1.02-1.31q-0.3-1.45 1.15-1.75zm-19.68-98.87l-0.73 0.15q-1.4 0.57-1.15 1.75l2.18-0.45zm2.58 16.12q-1.41 0.57-1.16 1.75l0.3 1.46 1.46-0.3zm14.23 21.28l-2.9 0.6 1.02 1.3q-0.7 3.59-2.15 4.23-1.82-1.49-2.05-2.6l-0.73 0.15q0.9 4.35-1.27 4.8l0.15 0.73 1.45-0.3q4.35-0.91 6.63-8.19zm0.07 33.29l0.15 0.73q0.11 1.49-1.15 1.75-1.45 0.3-1.75-1.15l1.3-1.03zm-0.4 5.38l-1.45 0.3-0.3-1.45q1.49-0.1 1.75 1.15zm-12.68-72.31l-0.72 0.15q-1.24 1.02-2.03 1.18l0.15 0.73 2.18-0.46zm22.38 111.94l0.3 1.45-2.18 0.45-0.3-1.45zm-13.15-78.27l-3.78 0.02-0.72 0.15 0.3 1.45 1.3-1.02 2.48 1zm-14.86-75.57l0.14 0.72q0.22 1.07-1.72 2.63l-2.78-2.45q1.19-0.25 2.6-2.05 1.49-0.1 1.76 1.15zm-4.51-21.78l0.3 1.45-2.18 0.45-0.3-1.45zm17.4 84.14l-1.6-0.43-0.43 1.6 1.6 0.43zm-6.89-33.33l-0.73 0.16 0.29 1.38 0.73-0.15zm13.46 61.49l-1.45 0.3 0.15 0.72 1.45-0.3zm16.59 25.33l-1.3 1.03q-3.65-3.65-5.25-3.46-1.11 0.99-2.76 1.33-0.15-0.73-0.87-0.58 0.1 1.5-1.16 1.75l-1.02-1.3-0.15-0.72q-0.3-1.45 1.15-1.75 1.47 0.45 3.05 0.12l-1.77-4.93 1.3-1.03zm-28.13-103.11q-4.27 1.3-3.9 3.08l4.35-0.9zm8.49 55.7l-1.45 0.3 0.15 0.73 1.45-0.3zm-9.74-47.12l0.45 2.18 2.18-0.45q-0.22-1.05-2.63-1.73zm20.35 69.15q-1.19 0.24-6.1-0.25l0.14 0.72q0.3 1.46 1.76 1.16l4.35-0.9zm-3.75 3.8l-1.45 0.3 0.45 2.18q0.78-0.16 2.32 0.28l-0.15-0.73q-1.01-1.23-1.17-2.03zm10.92 49.21l0.03 3.78-1.45 0.3-0.45-2.17q-0.3-1.46 1.15-1.76zm-34.32-162.38l0.3 1.45-0.73 0.15-0.3-1.45zm5.95 21.48l0.15 0.72q-1.53-0.43-2.33-0.27l-0.3-1.45 0.73-0.15q1.49-0.1 1.75 1.15zm8.24 39.86q-1.39 0.56-1.15 1.75l1.45-0.3zm-10.51-54.53l0.3 1.45-1.46 0.3-0.3-1.45zm1.33 2.75l0.15 0.73q0.1 1.49-1.15 1.75l-1.03-1.3 1.3-1.03zm10.47 46.97l-3.06-0.13q0.31 1.46 2.48 1.01l0.73-0.15zm17.03 93.36l0.3 1.46-0.73 0.15-0.3-1.46zm8.51 33.82l0.45 2.18-0.73 0.15q-1.45 0.3-1.75-1.15l1.3-1.03zm3.59 17.35q0.1 1.49-1.15 1.76l-0.73 0.15-0.3-1.45q-0.3-1.46 1.16-1.76zm-32.09-155.21l-1.45 0.3 0.15 0.72q0.29 1.39 1.74 1.09zm16.47 76l0.3 1.45-0.73 0.15q-1.45 0.3-1.75-1.15-0.3-1.45 1.15-1.75zm-25.22-125.66l-1.45 0.3-0.3-1.45q1.49-0.1 1.75 1.15zm14.09 68.17l-1.45 0.3 0.3 1.45 1.45-0.3zm-6.21-41.04l0.3 1.45q0.21 1-1.73 2.63l-0.72 0.15-0.15-0.72 0.42-1.6q-1.02-1.31-1.17-2.03l1.3-1.03q1.49-0.1 1.75 1.15zm-1.1-12.64q0.1 1.5-1.15 1.75l-0.72 0.15q-1.46 0.31-1.91-1.87 0.43-1.6 0.28-2.33l1.45-0.3q0.6 2.91 2.05 2.6zm3.08 25.86q0.1 1.49-1.16 1.75l-0.3-1.45zm16.89 74.4l-2.9 0.6 0.3 1.45q1.17-1 2.75-1.33zm-20.07-93.42q0.1 1.5-1.15 1.76l-0.3-1.46zm6.89 33.33l-1.45 0.3 0.75 3.63q0.3 1.44 1.75 1.15l0.73-0.15zm6.65 39.49l0.3 1.45 1.45-0.3q-0.5-1.4-1.75-1.15zm-8.76-75.32q0.22 1.05-1.73 2.63-3.95-1.18-4.22-2.16l-0.15-0.72q-0.3-1.45 1.87-1.9 3.59 0.7 4.23 2.15zm1.94 31.32l-1.46 0.3 0.61 2.9 1.45-0.3zm10.05 48.64l-1.45 0.3 0.15 0.72 1.45-0.3zm14.4 69.68l0.46 2.18-1.46 0.3-0.14-0.72q-0.31-1.46 1.14-1.76zm-23.08-108l0.15 0.73q1.94 2.08 2.2 3.33l2.91-0.6-0.45-2.18q-1.18-2.03-4.81-1.28zm9.13 40.5l-0.73 0.15 0.3 1.45 0.73-0.15zm-9.74-69.06q0.1 1.49-1.15 1.75l-0.73 0.15q-1.45 0.3-1.75-1.15l-0.15-0.73q-0.3-1.45 1.15-1.75 1.06-0.22 2.63 1.73zm12.36 70.79l-1.45 0.3 0.15 0.73 1.45-0.3zm12.69 50.36q0.22 1.05-1.73 2.62l-1.45 0.3-0.45-2.17q-0.3-1.46 1.15-1.76l0.73-0.15q1.49-0.1 1.75 1.16zm-17.66-78.1l-1.45 0.3 0.15 0.73 1.45-0.3zm14.68 67.36q0.1 1.49-1.15 1.75l-1.02-1.3q-0.3-1.45 1.15-1.75zm-17.41-84.21l-1.46 0.3 0.15 0.73 1.46-0.3zm18.01 87.11l0.3 1.45-1.46 0.3-0.3-1.45zm-30.65-155.57l-1.3 1.02-1.03-1.3 1.3-1.02zm2.25 10.88q0.11 1.5-1.15 1.76l-1.03-1.31-0.45-2.17q1.06-0.22 2.63 1.72zm4.53 25.56q0.1 1.49-1.15 1.75l-0.3-1.45zm24.5 103.85l0.15 0.73q0.23 1.13-2.31 3.51-1.45 0.3-1.75-1.16 2.18-0.44 1.73-2.63zm-6.98-22.77l-0.73 0.15 0.3 1.45 0.73-0.15zm-8.09-61.08l-3.78 0.03-0.72 0.15 0.3 1.45q1.85-0.38 3.91 0.63l0.44-1.53zm-2.16 4.17l-1.45 0.3 0.15 0.72 1.02 1.3q-0.42 1.61-0.27 2.33 3.66 0.76 6.83 0.1l0.43-1.6q-0.35-1.65-6.71-3.15zm-5.49-41.19l-1.3 1.03-0.72 0.15q-1.46 0.3-1.76-1.15l-0.15-0.73 2.18-0.45q1.49-0.1 1.75 1.15zm-1.42 4.08q0.1 1.5-1.16 1.75l-0.3-1.45zm31.15 143.36l0.15 0.73q0.21 1.05-1.73 2.63l-1.03-1.31-0.15-0.72q-0.22-1.06 1.73-2.63zm-23.82-133.52q-0.44 1.54-0.28 2.33l-2.9 0.6q-1.45 0.3-1.75-1.15l-0.15-0.73q-0.3-1.45 1.15-1.75l2.18-0.45q1.49-0.1 1.75 1.15zm-3.31 5.98l0.3 1.45-0.72 0.15-0.3-1.45zm4.81 1.28l0.15 0.72q0.25 1.2-3.91 3.08l-1.02-1.3 2.3-3.5 0.73-0.15q1.49-0.1 1.75 1.15zm6.46 34.93q-1.23 1.01-2.03 1.17l1.03 1.3 0.15 0.73-2.9 0.6 0.15 0.72q2.43-0.5 3.78-0.02 0.54-1.01-0.18-4.5zm-8.44-26.2l-0.73 0.15 0.6 2.91q1.31-1.03 2.03-1.18l-0.15-0.73q-0.5-1.4-1.75-1.15zm24.8 105.32q0.1 1.49-1.15 1.75-1.45 0.3-1.75-1.15l1.87-1.9zm-1.05-5.08l0.15 0.72-0.72 0.15q-1.45 0.3-1.76-1.15l1.31-1.03zm9.78 29.01q0.9 4.35-4.18 5.4l-0.45-2.17q-0.03-6.81 1.55-7.14 2.33 0.28 3.08 3.91zm-30.6-126.07l0.75 3.63 0.73-0.15q1.45-0.29 1.15-1.75-0.22-1.05-2.63-1.73zm14.2 61.34l-0.73 0.15 0.3 1.45 0.73-0.15zm-3.78-43.88q-2.17 0.45-5.23 0.32l0.15 0.73q0.1 0.46 5.26 3.46l-0.03-3.78zm12.21 66.36l0.3 1.45-2.18 0.45q-1.45 0.3-1.75-1.15-0.3-1.46 1.15-1.76l0.72-0.15q1.5-0.1 1.76 1.16zm-23.05-104.17l0.3 1.46-1.45 0.3-0.3-1.46zm10.19 27.35q-3.55-1.54-6.26-0.98l0.15 0.73q3.78 3.62 3.96 4.48l0.72-0.15q1.66-0.35 1.43-4.08zm14.63 81.75l-1.3 1.02-1.03-1.3 1.31-1.02zm-25.55-130.9l-1.3 1.03-1.02-1.3 1.3-1.03zm20.95 72.05l-1.3 1.03-1.6-0.43q-0.46 3.12-1.58 3.36-1.53-0.45-2.33-0.28l-0.42 1.6 0.15 0.73q3.4 0.8 5.38 0.4l-0.6-2.9 3.65 3.02zm1.23-12.36q-2.64 0.54-5.53-1.13-0.81-3.89-5.98-3.31l0.3 1.46q2.9-0.61 3.2 0.85l-0.42 1.6q5.02 1.99 7.85 1.4l0.73-0.15zm18.71 130.79l0.3 1.45-2.18 0.45-0.3-1.45zm-4.68-30l0.3 1.46q0.1 1.49-1.15 1.75-1.46 0.3-1.76-1.15l-0.3-1.46q-0.3-1.45 1.16-1.75 1.49-0.1 1.75 1.15zm-17.36-98.59l-0.72 0.15-1.88 1.9-1.6-0.42-0.73 0.15 0.15 0.72q1.72-0.35 4.38 2.88l0.73-0.15-1.03-1.3-0.15-0.73 1-2.47zm0.27 19.62l-1.45 0.3 0.3 1.45q1.46-0.3 1.15-1.75zm4.2 20.33l-0.72 0.15 0.3 1.45 0.72-0.15zm10.49 25.08l-1.3 1.03q-0.73 0.15-0.88-0.58l-1.3 1.03-0.72 0.15q-1.46 0.3-1.76-1.16-0.3-1.45 1.15-1.75l2.48 1 1.3-1.02zm2.73 16.84q0.3 1.46-1.87 1.91-3.14-0.53-3.36-1.58l-0.15-0.73q-0.3-1.45 1.15-1.75 3.96 1.18 4.23 2.15zm1.9 23.83l0.15 0.73q0.1 1.49-1.15 1.75l-1.02-1.3-0.16-0.73q-0.3-1.45 1.16-1.75zm-28.62-134.8l0.3 1.46-0.73 0.15-0.3-1.46zm14.32 58.28l-2.91 0.6q0.3 1.46 1.75 1.16l1.46-0.3zm0.12-50.67l0.15 0.73q0.1 1.49-1.15 1.75-0.15-0.72-0.88-0.58l0.43-1.6q-0.29-1.04-4.23-2.15l-0.73 0.15q0.6 2.9-2.3 3.5l1.02 1.3 0.15 0.73-1.45 0.3q-0.45-2.18-3.35-1.58l-0.15-0.72q3.19-5.2 8.66-9.36 1.5-0.11 1.75 1.15-2.68 1.65-2.45 2.78 0.07 0.33 4.53 3.6zm16.11 132.84l0.3 1.45-1.45 0.3-0.3-1.45zm-29.7-165.6l0.45 2.18q-3.36 0.69-4.78 2.5l-0.15-0.73q-0.4-1.92 4.48-3.95zm19.19 114.79l0.3 1.45-0.73 0.15-0.3-1.45zm6.33 12.31q-0.44 1.54-0.27 2.33l-0.73 0.15q-1.45 0.31-1.75-1.15l-0.15-0.73q-0.3-1.44 1.15-1.75 1.49-0.1 1.75 1.15zm-17.43-87.97l0.15 0.73-1.45 0.3q-1.45 0.29-1.75-1.16l1.3-1.02q1.51-0.04 1.75 1.15zm3.53 6.08l-1.45 0.3q-1.48 1.82-2.6 2.05 0.3 1.45 1.75 1.15l2.18-0.45zm-0.2 13.67l-1.45 0.3 0.3 1.45 1.45-0.3zm5.37 22.35q-1.05 0.22-1.72 2.63 1.5-0.03 1.75 1.15l-0.43 1.6 1.6 0.43 0.73-0.15q-1.3-2.62-1.93-5.66zm5.76 13.19l-0.73 0.15q-1.48 1.83-2.6 2.06 0.75 3.63 4.38 2.88l0.12-3.06q-1-1.23-1.17-2.03zm-8.61-74.59l-0.72 0.15q-1.41-0.47-3.06-0.13 0.21 0.99-1.73 2.63l-1.6-0.43q0.1 1.5-1.15 1.75l-0.73 0.16-0.15-0.73q1.43-4.08 7.24-5.28zm4.86 56.45l-2.18 0.45 0.45 2.18q1.23-1.01 2.03-1.18zm6.72 28.88l-0.72 0.15q-1.24 1.02-2.03 1.18l0.3 1.45 0.73-0.15q1.24-1.01 2.02-1.17zm4.41 28.61l0.15 0.73-1.45 0.3-0.16-0.73zm-19.8-95.81l0.3 1.45-0.72 0.15-0.3-1.45zm20.93 90.28l-1.3 1.03q-1.45 0.3-1.75-1.15-0.3-1.46 1.15-1.76l0.72-0.15q0.17 0.8 1.18 2.03zm-22.06-110.42l-1.46 0.3q-1.45 0.3-1.75-1.15l1.3-1.03zm0.97 15.7l0.3 1.45-0.73 0.15-0.3-1.45zm21.92 87.74l-3.17 2.93-1.03-1.31q1.72-0.35 1.28-4.8l0.72-0.15q1.94 2.08 2.2 3.33zm-7.9-30.91l-2.18 0.45 0.15 0.72 2.18-0.45zm-15.04-80.08l-1.3 1.02q-1.46 0.3-1.76-1.14l-0.15-0.73 1.46-0.3q1.49-0.11 1.75 1.15zm6.44 31.14l-2.91 0.61q0.3 1.45 1.76 1.15l1.45-0.3zm15.45 74.76l0.15 0.72-0.73 0.16q-1.44 0.3-1.75-1.16l1.31-1.02zm3.42 12.92l0.15 0.72q-1.11 1.96-0.55 4.66l-1.6-0.43q0.09-4.56 2-4.95zm-16.64-102.46l0.3 1.45-0.73 0.15-2.47-1q-0.46 3.12-1.58 3.35l-1.03-1.3-0.15-0.72q-0.21-1.06 1.73-2.63l0.73-0.15q2.08 1.08 3.2 0.85zm7.12 23.44q-1.06 0.22-1.73 2.62l0.15 0.73 1.9 1.88-1.3 1.02-1.45 0.3-0.6-2.9-4.36 0.9-0.45-2.17 5.23-0.33-0.45-2.18-3.05-0.12-0.45-2.18 2.18-0.45q0.99-0.21 4.38 2.88zm3.49 46.2l-0.3-1.45 0.43-1.6q-1.45 0.3-1.9-1.88l-1.46 0.3 0.15 0.73 1.03 1.3-0.42 1.6q3.33 6.12 4.98 5.78l0.72-0.15q-1.33-2.75-3.23-4.63zm1.25 13.37l0.3 1.45-0.72 0.15-0.3-1.45zm-22.25-114.92l0.15 0.73-1.45 0.3-0.15-0.73zm4.58 11.16l0.15 0.73q0.1 1.49-1.15 1.75l-1.61-0.42q0.46-1.48 0.13-3.06l0.73-0.15q1.49-0.1 1.75 1.15zm3.6 17.42q0.1 1.49-1.15 1.75-1.46 0.3-1.75-1.14l-0.31-1.46 1.46-0.3q1.49-0.1 1.75 1.15zm8.29 47.42l0.3 1.45-1.46 0.3-0.3-1.45zm3.16 15.24l-1.46 0.3q0.3 1.45 1.76 1.15zm18.3 88.56l0.15 0.72-1.45 0.31-0.16-0.73zm-21.2-109.9l0.3 1.45-0.73 0.15q-1.45 0.3-1.75-1.15zm-3.35-23.53l-2.3 3.5-0.03-3.78-0.15-0.73-1.02-1.3 1.3-1.02q0.38 1.84 2.2 3.33zm7.8 37.74l-2.6 2.05q1.01 1.24 1.17 2.03l2.91-0.6zm7.2 34.84l0.15 0.73-1.45 0.3q-1.45 0.3-1.75-1.15-0.3-1.45 1.15-1.75zm4.3 13.49q-2.18 0.44-1.58 3.35l-1.45 0.3q-0.32-5.23 1.13-5.53l0.73-0.15q0.16 0.79 1.17 2.03zm-22.34-108.09q0.1 1.49-1.15 1.75l-1.03-1.3-0.3-1.46 0.73-0.15q1.49-0.1 1.75 1.16zm33.86 160.13q-0.46 3.12-1.58 3.36l-1.03-1.31-0.3-1.45q-0.3-1.45 1.16-1.75 1.5-0.04 1.75 1.15zm-40.64-196.58l-1.3 1.03-1.02-1.3 1.3-1.03zm10.05 48.64l-1.3 1.02-1.03-1.3-0.15-0.73 0.73-0.15q1.49-0.1 1.75 1.16zm8.24 39.85l-2.18 0.45 0.3 1.46 2.18-0.45zm-13.82-70.49q0.1 1.49-1.15 1.75l-0.3-1.45zm12.06 21.72q-1.52 5.62-6.21 6.59l-0.72 0.14-0.45-2.17q5.4-4.15 7.38-4.56zm0.16 26.39l0.45 2.18q0.1 1.49-1.15 1.75l-1.45 0.3-0.3-1.45q-0.21-0.99 1.72-2.63zm13.21 63.88l0.44 2.18q0.11 1.49-1.14 1.75-1.45 0.3-1.76-1.15l-0.15-0.73q-0.29-1.45 1.15-1.75zm3.93 22.65q0.1 1.49-1.15 1.75l-1.03-1.3zm-21.23-117.4l0.3 1.45q-1.46 0.31-1.3 1.03 1 1.24 1.17 2.03l-2.18 0.45-0.75-3.63-1.9-1.88 1.3-1.02q0.45 2.17 3.36 1.57zm3.06 25.79l0.15 0.73q0.1 1.49-1.15 1.75l-1.03-1.3 1.3-1.03zm7.25 20.45l0.15 0.73q-1.12 0.23-2.45 2.77-0.3-1.44-2.48-1l-0.3-1.45 1.6 0.43 0.13-3.06 0.73-0.15q1.05-0.21 2.62 1.73zm6.2 37.32l0.15 0.73q-1.64 0.34-2.75 1.32l-1.03-1.3 1.88-1.9q1.5-0.1 1.75 1.15zm0.03 3.78l0.15 0.72q0.1 1.5-1.16 1.76-1.44 0.3-1.75-1.15l1.3-1.03zm2.93 25.13l0.3 1.45-0.73 0.15-0.3-1.45zm-17.92-97.65l0.14 0.66q0.1 1.5-1.16 1.76l-1.02-1.31 1.31-0.96zm4.51 25.49l0.16 0.73-1.46 0.3-0.15-0.73zm-7.84-45.24q0.11 1.5-1.14 1.76l-0.31-1.46zm-3.07-25.85q0.1 1.49-1.15 1.75-1.45 0.3-1.75-1.15-0.3-1.46 1.15-1.75 1.49-0.1 1.75 1.15zm10.34 50.02l-1.3 1.02q-1.45 0.3-1.75-1.15-0.3-1.45 1.15-1.75zm11.91 42.95q-0.52 3.14-1.58 3.35l-2.18 0.46q-1.45 0.3-1.75-1.16l-0.15-0.72q-0.34-1.65 4.48-3.96 1.01 1.24 1.18 2.03zm1.37 10.31q0.11 1.5-1.15 1.75l-1.03-1.3-1.3 1.03q-1.45 0.3-1.75-1.15l-0.3-1.45 0.73-0.15q4.51-0.18 4.8 1.27zm-11.03-42.37l-1.3 1.02-1.03-1.3-0.15-0.72 0.73-0.15q1.51-0.04 1.75 1.15zm20.56 99.44l0.3 1.45q0.1 1.49-1.15 1.75l-1.03-1.3-0.3-1.45zm-16.19-122.23q-3.39 2.22-4.78 2.5 2.2 3.33 2.49 4.72l-1.3 1.03q-3.55-4.5-4.66-4.27 0.15 0.73-0.58 0.88l-1.03-1.31q-0.23-1.12 3.61-4.53l3.2 0.86q1.24-1.02 2.03-1.18zm10.92 49.15q-0.28 2.32-3.91 3.07-1.45 0.3-2.05-2.6l-0.73 0.15-1.88 1.9-0.72 0.15q-1.45 0.3-1.75-1.15l-0.3-1.45 2.9-0.6q0.73-0.15 0.88 0.58l1.3-1.03 1.45-0.3q4.45-0.44 4.81 1.28zm-5.56-4.91l-1.3 1.03-0.73 0.15q-0.72 0.15-0.87-0.58l-1.3 1.03-1.46 0.3-0.45-2.18 1.45-0.3-1.9-1.88 1.3-1.03q0.73-0.15 5.26 3.46zm1.43-26.03l0.45 2.18q0.22 1.05-1.73 2.63-4.23-2.16-5.68-1.86l-0.3-1.45 0.42-1.6q-1.11 0.23-4.53-3.61-0.14-0.72 0.58-0.87l-1.03-1.31-0.15-0.72q-0.29-1.45 1.16-1.75l0.72-0.15q1.06-0.22 2.63 1.72-0.28 2.33-1 2.48 3.97 5.24 8.46 4.31zm-3.58 8.31l-1.31 1.02q-0.98-1.1-1.32-2.75l-0.73 0.15-1.87 1.9-0.73 0.15-0.15-0.72q-0.3-1.46 3.91-3.08 1.94 2.07 2.2 3.33zm-4.94 1.77l0.31 1.46-0.73 0.15-0.3-1.46zm12.11 51.24l0.3 1.45q0.1 1.5-1.15 1.75l-1.03-1.3q-0.3-1.45 1.16-1.75zm-14.51-62.85l0.3 1.45-0.72 0.15-0.3-1.45zm14.76 56.74l-1.31 1.03-1.02-1.31 1.3-1.02zm-20.72-103.89q0.04 1.5-1.15 1.75l-1.03-1.3q-0.3-1.45 1.16-1.75zm11.89 64.84l0.3 1.45-0.73 0.15-0.3-1.45zm8.3 25.53l0.15 0.73q-3.58-0.71-4.23-2.16-0.21-1.05 1.73-2.63l0.15 0.73-0.42 1.6q1.05-0.22 2.62 1.73zm11.79 24.05l0.15 0.73q-2.18 0.45-4.34 4.68l-5.55-4.91-0.15-0.72q0.28-2.33 3.9-3.08 5.79 2.31 5.99 3.3zm-5.59 13.27l0.15 0.73-1.45 0.3-0.15-0.73zm-21.79-112.75l0.3 1.45-1.45 0.3-0.3-1.45zm12.27 55.68q0.03 1.51-1.15 1.75l-0.73 0.15-0.6-2.9 0.73-0.15q1.5-0.04 1.75 1.15zm8.33 29.31l-1.31 1.03-1.45 0.3q-1.45 0.29-1.75-1.15-0.3-1.46 1.15-1.76l0.73-0.15q1.06-0.22 2.63 1.73zm-1.11 9.31l0.15 0.73-1.45 0.3-0.15-0.73zm-5.54-48.81q-0.8 0.17-2.73 5.11l-1.45 0.3q2.22-6.52 3.15-6.71zm7.47 32.52l0.15 0.72q-1.08 2.08-0.85 3.21l-1.45 0.3q-1.45 0.29-1.75-1.15 1.18-3.97 2.15-4.23 1.51-0.04 1.75 1.15zm-21.56-100.68l-2.18 0.45q-0.34-1.65-1.33-2.76l1.31-1.02q1.93 2.07 2.2 3.33zm3.67 28.76l0.3 1.45-0.73 0.15-0.3-1.45zm2.8 6.23l-1.3 1.02-1.03-1.3 1.31-1.02zm2.51 8.49q0.22 1.06-1.72 2.63l-0.73 0.15-0.59-2.84q-0.3-1.45 1.16-1.75zm9.32 48.79l0.15 0.72-1.45 0.3-0.15-0.72zm-3.9-18.88l0.3 1.46-0.72 0.14-0.3-1.45zm3.1 7.69q0.04 1.5-1.15 1.75l-0.72 0.15-0.3-1.46zm-8.86-46.54l0.3 1.46-0.73 0.15-0.3-1.45zm5.04 17.05l-1.3 1.03-1.03-1.3 1.3-1.03zm7.94 34.69l0.3 1.45q0.03 1.51-1.16 1.75-1.45 0.3-1.75-1.15l-0.3-1.45zm-6.6-31.94l0.14 0.73-0.72 0.15q-1.45 0.3-1.75-1.15l1.3-1.03zm4.05 19.6q0.03 1.51-1.15 1.75l-0.73 0.15-0.3-1.45q-0.3-1.45 1.15-1.75zm-4.86-56.45q-2.18 0.45-1.58 3.36l-1.45 0.3q-0.18-0.86-5.25-3.46 0.72-0.15 0.57-0.87 2.68 0.95 3.93 0.7-0.3-1.45 1.15-1.76 1.06-0.22 2.63 1.73zm-1.14 27.42l0.45 2.17-1.45 0.3-0.45-2.17zm-6.94-40.89l-1.3 1.03-1.03-1.3 1.3-1.03zm24.65 104.59q0.14 0.72-0.58 0.87l1.03 1.3 0.15 0.73-0.43 1.6-4.5 0.18-0.45-2.18 0.72-0.15 2.48 1-0.45-2.18-1.9-1.87 1.3-1.03q1.05-0.22 2.63 1.73zm1.22 9.58l-1.3 1.03q-1.12 0.23-3.5-2.31l-0.15-0.72 0.72-0.15q3.96 1.18 4.23 2.15zm-18.89-91.39l-1.3 1.03-0.73 0.15q-1.45 0.3-1.75-1.16l1.3-1.02 0.73-0.15q1.49-0.1 1.75 1.15zm3.81 29.42l-1.45 0.3-0.3-1.45q1.5-0.04 1.75 1.15zm16.18 74.61l-1.3 1.03-1.02-1.3 1.3-1.03zm-17.39-80.42l0.3 1.45-0.73 0.16-0.3-1.46zm11.51 48.34l0.15 0.72q0.03 1.51-1.15 1.75l-1.03-1.3 1.3-1.03zm-6.65-39.49l0.15 0.72q0.04 1.51-1.15 1.76-1.45 0.3-1.75-1.16l-0.15-0.72q-0.3-1.46 1.15-1.75 1.51-0.04 1.75 1.15zm-0.25 6.1l0.15 0.73-1.45 0.3-0.15-0.73zm2.85 13.8l0.15 0.72-1.45 0.3-0.15-0.73zm14.99 68.81q0.03 1.51-1.15 1.76l-1.03-1.31q-0.3-1.45 1.15-1.75zm1.05 5.09l0.3 1.45-2.18 0.45-0.3-1.45zm-12.06-65.64l-1.3 1.03q-1.45 0.3-1.75-1.15l1.3-1.03q1.51-0.03 1.75 1.15zm8.38 36.88q0.04 1.5-1.15 1.75-1.45 0.3-1.75-1.15-0.3-1.46 1.15-1.76 1.49-0.1 1.75 1.16zm-18.16-91.55l0.45 2.18q0.03 1.51-1.16 1.75l-1.02-1.3q-0.15-0.72 0.57-0.88l-1.02-1.3q-0.3-1.44 1.15-1.75zm6.39 23.59l-1.31 1.03-1.9-1.88 1.46-0.3q1.5-0.03 1.75 1.15zm4.52 25.55l-1.3 1.03-1.02-1.3-0.15-0.73 0.72-0.15q1.51-0.03 1.75 1.15zm5.11 24.68l-2.18 0.45q-0.3-1.45 1.15-1.75zm5.27 29.19l0.15 0.73-1.45 0.3-0.15-0.73zm-21.61-108.24l-1.46 0.3-0.3-1.45q1.5-0.1 1.76 1.15zm9.99 41.01l0.3 1.45q0.03 1.51-1.15 1.75-1.46 0.3-1.76-1.15l-0.3-1.45q-0.3-1.45 1.16-1.75 1.5-0.04 1.75 1.15zm5.7 27.58q0.04 1.51-1.15 1.75-1.46 0.31-1.76-1.15zm5.03 13.34q-0.09 4.57-1.28 4.81l-2.91 0.6q-0.8-3.89 1.86-5.68 1.54 0.44 2.33 0.27zm-6.23-19.14l-2.18 0.45q-0.3-1.45 1.15-1.75zm-13.22-67.59q0.04 1.5-1.15 1.75l-1.02-1.3q-0.3-1.45 1.15-1.75zm12.25 29.94l-2.18 0.45q-0.89-4.28-7.3-6.06l-0.16-0.73q0.28-2.32 3.91-3.07 1.81 1.42 5.73 9.41zm-10.6-21.96l0.15 0.73-1.45 0.3-0.15-0.73zm10.1 34.17q0.03 1.52-1.15 1.76-3.13-0.46-3.36-1.58-0.3-1.45 1.15-1.75 3.14 0.52 3.36 1.57zm-1.11 9.31l0.45 2.18-1.45 0.3-0.15-0.72q-0.3-1.46 1.15-1.76zm-12.68-76.02l0.14 0.73-2.17 0.45q-1.45 0.3-1.75-1.15-0.3-1.45 1.15-1.76 1.05-0.21 2.63 1.73zm11.86 61.06l0.45 2.17-1.45 0.3-0.45-2.17zm-15.34-81.53l-2.18 0.45q-0.3-1.45 1.15-1.76zm26.21 119.41l-1.88 1.9q-1.46 0.3-1.75-1.15l2.6-2.05zm-2.95-28.91l0.45 2.18q0.03 1.5-1.15 1.75l-2.91 0.6-1.6-0.43 0.7-3.93zm7 48.51l-1.31 1.02-1.02-1.3 1.3-1.02zm-26.87-133.64l-1.3 1.02-1.03-1.3 1.31-1.03zm22.27 96.75q0.04 1.51-1.15 1.76-1.41-0.47-3.06-0.13l-0.3-1.45q1.21 0.51 4.51-0.18zm10.25 56.92q0.03 1.51-1.15 1.75-1.46 0.31-1.76-1.15l-0.3-1.45 1.46-0.3q1.49-0.1 1.75 1.15zm-29.42-145.98l0.15 0.72-0.73 0.15q-1.45 0.3-1.75-1.15l1.3-1.03zm14.95 64.97q-1.48 3.81-1.28 4.8l-1.45 0.3-0.3-1.45q1.81-2.23 1.58-3.35zm7.03 8.39q0.03 1.5-1.16 1.75l-0.72 0.15-5.23 0.32q0.15 0.73-0.58 0.88l-1.02-1.3 1.3-1.03 1.45-0.3q0.73-0.15 0.88 0.58 2.07-1.95 4.05-2.36zm-12.45-38.23l0.45 2.18-0.72 0.15q-3.14-0.52-3.36-1.58-0.3-1.45 1.15-1.75l0.73-0.15q1.49-0.11 1.75 1.15zm25.07 102.98l0.15 0.73q-1.11 1.94-0.4 5.38l-2.18 0.45q-0.23-1.12-2.05-2.61 2.52-2.44 2.3-3.5zm-26.47-117.07q0.04 1.51-1.15 1.75l-1.02-1.3zm6.57 28.09l0.29 1.45-1.45 0.3q-1.45 0.3-1.75-1.15l-0.3-1.45 1.45-0.3q1.51-0.04 1.76 1.15zm-5.67-23.73l0.3 1.45-1.45 0.3-0.3-1.45zm2.7 13.06l0.3 1.45q-1.45 0.3-1.75-1.15l-0.3-1.45q1.49-0.11 1.75 1.15zm18.42 85.43l-2.18 0.45q-0.3-1.45 1.15-1.75zm-13.03-59.37l0.3 1.46-0.72 0.14-0.3-1.45zm4.93 20.17l0.15 0.73-1.45 0.3-0.16-0.73zm1.21 5.81l0.45 2.18-1.45 0.3-0.46-2.18zm2.56 12.34l0.15 0.73-1.45 0.3-0.15-0.73zm-13.85-74.27l-1.3 1.03-1.03-1.3 1.31-1.03zm16.81 85.01l-1.45 0.3-0.45-2.18 0.73-0.15q0.16 0.79 1.17 2.03zm-11.26-80.11l0.6 2.91q0.04 1.5-1.15 1.75l-1.45 0.3q-1.59-0.02-3.66-3.03l1.3-1.03 0.16 0.73 1.3-1.03zm1.6 26.09l0.3 1.46-0.72 0.15q-1.45 0.3-1.76-1.16-0.29-1.45 1.16-1.75zm18.93 95.24l0.59 2.91-1.45 0.3-0.6-2.91zm-11.15-61.27l0.45 2.18-0.72 0.15q-1.46 0.3-1.76-1.15l1.31-1.03zm-8.58-45.15l-1.3 1.02-1.03-1.3 1.3-1.03zm-0.73-3.57l-1.45 0.3-0.3-1.45q1.49-0.1 1.75 1.15zm-11.93-68.68q0.03 1.51-1.16 1.75-1.45 0.3-1.75-1.15-0.3-1.45 1.15-1.75 1.5-0.1 1.76 1.15zm30.87 145.69l0.15 0.72q0.04 1.51-1.15 1.75-1.45 0.3-1.75-1.15l-0.15-0.72zm-26.8-122.31l0.3 1.45-0.73 0.15-0.3-1.45zm16.05 77.6l0.3 1.45-0.73 0.15-0.3-1.45zm6.28 26.71l0.3 1.45-1.46 0.3q-0.3-1.45 1.16-1.75zm-19.09-99.68q0.03 1.51-1.16 1.75l-0.72 0.15-0.3-1.45q-0.3-1.45 1.15-1.75zm12.47 42.01l0.3 1.45q-5.07 1.81-5.66 1.93l-0.6-2.91q-0.21-0.99 1.74-2.56 3.22 2.3 4.22 2.09zm7.89 52.86q0.04 1.51-1.15 1.76-1.45 0.3-1.75-1.16-0.3-1.45 1.15-1.75 1.51-0.03 1.75 1.15zm7.01 26.56l0.3 1.45q0.04 1.51-1.15 1.76l-1.03-1.31-0.3-1.45zm-8.35-55.04q-0.77 3.6-2.15 4.23-1.46 0.3-1.76-1.15-0.33-1.58 0.13-3.06-1.02-1.23-1.18-2.02l1.46-0.3q0.72-0.15 3.5 2.3zm0.22 12.06l0.45 2.18-0.72 0.15q-1.46 0.31-1.76-1.15l1.31-1.03zm2.13 13.95l-1.46 0.3-0.3-1.46q1.51-0.03 1.76 1.16zm1.93-16.3q0.03 1.51-1.16 1.75-1.98 0.41-4.37-2.88 2.07-1.94 4.05-2.35zm-3.01 7.44l0.3 1.45-0.72 0.15-0.3-1.45zm-7.99-45.97l0.3 1.45-1.45 0.3-0.3-1.45zm10.92 49.14l0.3 1.46q0.03 1.5-1.15 1.75l-1.03-1.3zm15.13 69.54l0.15 0.72q0.03 1.51-1.15 1.76-1.45 0.29-1.75-1.16l-0.15-0.72q-0.3-1.45 1.15-1.75 1.49-0.11 1.75 1.15zm-7.08-37.9q0.04 1.51-1.15 1.76l-1.03-1.31zm-18.57-86.16l0.3 1.45-0.72 0.15-0.3-1.45zm17.93 53.75q-0.73 0.15-0.58 0.88l-1.6-0.43-1.88 1.9q-1.18 0.24-3.5-2.3l-0.15-0.73q-0.3-1.45 1.15-1.75l0.73-0.15q1.77-0.37 2.77 2.45l1.31-1.02q1.5-0.04 1.75 1.15zm-4.74 10.06l0.3 1.45-0.72 0.15-0.3-1.45zm4.01 12.04q0.03 1.5-1.16 1.75l-1.02-1.3q-0.3-1.45 1.15-1.75zm-18.8-98.23l-1.3 1.03-1.02-1.3 1.3-1.03zm20.19 90.37l0.45 2.18-0.73 0.15q-1.45 0.29-1.75-1.15l1.3-1.03zm-12.39-74.57q0.04 1.5-1.15 1.75l-1.45 0.3q-1.45 0.3-1.75-1.15 2-1.93 3.33-2.2zm2.34 25.94l0.15 0.72-1.45 0.3-0.15-0.72zm13.33 60.82l0.15 0.72-1.46 0.3-0.15-0.72zm-9.53-57.07l0.15 0.73-1.45 0.3-0.15-0.73zm-0.71-21.73l-2.17 0.45q-0.38-1.85-2.21-3.33l1.31-1.03q2.32 0.28 3.07 3.91zm14.97 68.74l-0.43 1.6q-1.46-0.45-3.05-0.13l-0.3-1.45 2.75-1.32zm-18.89-91.39l0.15 0.72-2.18 0.45-0.15-0.72q-0.3-1.46 1.15-1.76zm9.07 32.87l-1.31 1.03-0.72 0.15q-1.45 0.3-1.75-1.16l-0.3-1.45 0.72-0.15q3.14 0.53 3.36 1.58zm-0.24-15.78l0.15 0.73q0.04 1.5-1.15 1.75l-0.73 0.15q-1.45 0.3-1.75-1.15 0.43-1.6 0.28-2.33l1.45-0.3q1.49-0.1 1.75 1.15zm5.43 19.25l0.15 0.72-1.39 0.29-0.15-0.72zm-1.11-16.36q0.1 1.5-1.16 1.75-1.44 0.31-1.75-1.15-0.29-1.45 1.15-1.75 1.5-0.1 1.76 1.15zm11.64 49l0.45 2.17-2.18 0.45q-1.45 0.3-1.75-1.15l1.3-1.02zm-8.31-51.2l-2.18 0.45q-0.3-1.45 1.15-1.75zm2.84 13.73l-1.3 1.02-1.02-1.3 1.3-1.03zm-8.96-39.71l0.3 1.45-0.73 0.15-0.3-1.45zm21.96 95.3l-1.3 1.03q-1.44 0.3-1.75-1.16l1.3-1.02q1.51-0.04 1.75 1.15zm-0.39-16.57l0.3 1.45-0.73 0.15-0.3-1.45zm3.98 8.26l-1.3 1.03-0.73 0.15-0.45-2.18 0.72-0.15q1.52-0.04 1.76 1.15zm-9.78-50.96l-1.3 1.02-0.73 0.15-0.15-0.72q-0.3-1.45 1.16-1.75zm3 14.52l0.3 1.45-1.45 0.3-0.3-1.45zm5.1 24.68l0.3 1.45-1.45 0.3-0.3-1.45zm-3.52-28.04l0.3 1.46-0.73 0.15q-1.45 0.3-1.75-1.16-0.3-1.45 1.15-1.75zm10.75 44.71q0.1 1.49-1.15 1.75-0.99 0.2-2.63-1.73l-0.15-0.72 2.18-0.45q1.51-0.04 1.75 1.15zm-12.04-65.57l-1.3 1.03q-1.45 0.3-1.75-1.15l1.3-1.03q1.49-0.1 1.75 1.15zm3.77 21.87l0.45 2.17-0.73 0.15q-1.45 0.3-1.75-1.15l-0.15-0.72zm-5.84-28.25l-1.3 1.03-0.45-2.18q1.49-0.1 1.75 1.15zm-4.75-37.62q0.22 1.06-1.73 2.63-1.45 0.3-1.75-1.15-0.22-1.06 1.73-2.63 1.49-0.1 1.75 1.15zm5.23 21.63l0.15 0.72q0.1 1.5-1.15 1.76l-1.46 0.3-0.15-0.73q-0.3-1.45 1.16-1.75zm15.59 75.42l0.3 1.46-0.73 0.15-0.3-1.46zm2.85-8.15q0.11 1.49-1.15 1.75-1.45 0.3-1.75-1.15-0.3-1.46 1.15-1.76 1.51-0.03 1.75 1.16zm-4.65-22.51l-1.3 1.03-1.03-1.3 1.31-1.03zm-6.76-36.38l0.45 2.18q-1.45 0.3-1.75-1.15zm3.98 8.26l0.3 1.46-0.73 0.15-0.3-1.46zm3.53-15.86q0.1 1.49-1.15 1.75l-1.03-1.3zm10.77 26.46l0.3 1.46-1.45 0.3q-0.3-1.46 1.15-1.76zm18.38 77.95q0.11 1.49-1.15 1.75l-0.72 0.15q-1.46 0.3-1.76-1.15-0.3-1.45 1.16-1.75l0.72-0.16q1.49-0.1 1.75 1.16zm-6.5-38.77l-1.3 1.02q-1.45 0.3-1.75-1.15l1.3-1.02q1.51-0.04 1.75 1.15zm15.39 63.42l0.3 1.45-2.18 0.45q-1.46 0.3-1.75-1.15-0.31-1.45 1.15-1.75l0.73-0.15q1.49-0.1 1.75 1.15zm-16.39-82.89l0.45 2.17-0.72 0.15q-1.45 0.3-1.75-1.15l1.3-1.03zm12.79-0.37l0.45 2.18-2.17 0.44-0.45-2.17zm8.48 30.03q0.1 1.5-1.15 1.75l-0.73 0.15q-1.05 0.23-2.62-1.73-0.31-1.44 1.15-1.75l0.72-0.14q1.06-0.22 2.63 1.72z"/>
			</g>
		</g>
		<g id="&lt;Group&gt;">
			<path id="&lt;Compound Path&gt;" fill-rule="evenodd" class="s1" d="m5764.31 1175.88c106.13 152.46 59.33 355.08-111.82 453.66-116.75 68.67-251.87 100.62-383.72 120.69-57.42 9.9-126.82 4.13-176.49 35.81-75.01 55.31-94.63 206.34-108.18 292.83-7.18 68.28-12.67 159.99-87.1 186.71-87.78 31.81-153.73-60.73-158.26-139.91-9.52-93.42-0.6-187.47-3.05-281.11-1.07-28.69-4.58-59.69-21.06-83.53-21.7-32.34-62.69-44-99.43-54.28-42.8-11.5-85.39-23.54-127.45-37.4-129.53-40.12-198.33-102.47-260.2 55.87-33.38 72.94-95.78 157.98-186.49 131.26-53.72-14.6-95.34-68.39-92.19-122.24-0.51-73.18 52.85-135.48 82.86-199.39 28.92-59.4-19.18-103.86-70.2-144.7-50.11-45.09-108.47-91.25-126.08-158.17-12.08-51.31 34.69-74.37 80.78-54.02 29.26 10.93 56.8 30.32 83.67 47.32 51.92 30.05 125.94 93.13 183.57 50.65 28.72-22.37 19.59-62.98-12.57-77.79-34-18.86-83.16-27.21-114.83-50.77-42.87-29.19-21.75-69.35 21.02-82.07 71.33-24.07 149.04-7.98 222.51-19.07 69.48-10.21 106.3-73.46 145.05-130.57 16.44-25.15 35.03-49.98 45.92-78.02 20.8-49.72-27.75-63.48-69.22-63.36-93.01-1.44-182.22 8.57-269.2 25.51-47.91 8.53-102.65 18.02-146.21-8.94-36.12-21.44-54.29-67.47-42.1-107.58 45.52-145.81 417.56-107.88 545.87-101.6 184.02 32.19 190.33-116.19 261.08-241.44 19.73-36.53 50.85-71.42 93.25-78.84 166.66-9.52 113.13 209.38 103 313.97-8.95 68.87 34.62 111.28 94.96 129.64 44.76 16.44 88.06 33.19 133.09 52.08 68.89 30.15 125.01 34.9 147.88-55.52 18.19-61.56 23.7-125.46 44.98-182.82 24.28-80.99 117.33-145.05 187.34-76.08 89.36 100.48-2.53 253.71-46.81 364.1-9.76 23.98-19.08 49.54-16.88 74.91 2.16 50.8 62.86 89.86 100.69 123.73 56.77 49.38 109.49 105.32 150.26 167.74zm-530.66-220.17c-12.39-33.25-63.54-48.49-101.37-62.72-56.56-16.16-114.82-49.29-174.58-42.74-42.4 10.43-41.79 68.45-44.42 111.17 1.47 58.55-19.76 128.64 13.05 180.67 21.96 28.54 67.22 31.83 107.72 36.74 36.8 3.53 78.31 10.87 111.5-9.24 33.47-20.37 47.68-65.59 63.82-102.58 12.74-34.02 35.65-71.85 25.2-108.76zm-248.3 595.5c49.94-20.36 68.33-82.47 87.83-128.64 11.01-24.32 9.17-54.67-18.59-65.87-21.24-9.94-45.07-14.77-67.65-21.03-29.61-8.37-63.68-15.17-72.06 16.88-6.78 31.59-0.21 65.39 1.61 97.21 2.2 39.74 11.53 113.83 66.03 102.23zm-240.68-517.88c5.34-123.02-18.27-196.87-103.23-64.14-15.98 29.54-85.11 101.21-59.55 127.83 23.95 18.28 58.19 17.11 86.71 24.05 75.84 14.17 75.76-13.96 76.01-84.23zm-53.88 468.84c54.83 4.15 56.88-61.01 55.7-102.97-0.74-31.43 0.88-64.88-13.53-93.41-22.1-42.01-80.16-43.38-130.14-52.45-44.04-6.19-95.41-17.85-132.85 4.32-37.65 24.24-84.59 94.77-70.31 139.73 9.88 24.22 43.97 37.48 75.91 48.48 68.99 21.66 141.55 45.93 212.23 56.22zm926.79-13.63c137.16-89.39 67.19-256-53.75-361.51-70.16-62.57-159.17-138.5-207.95-7.16-17.86 42.09 7.46 73.37 50.75 85.01 63.05 21.61 221.77 54.91 188.12 149.79-48.55 73.47-158.86 70.2-237.59 70.54-50.21-1.26-105.56-12.63-143.18 12.85-50.32 33.92-90.72 136.62 1.33 141.45 141.1 5.82 283.6-16.78 399.66-89.16z"/>
			<g id="&lt;Group&gt;" style="opacity: .94">
				<path id="&lt;Compound Path&gt;" fill-rule="evenodd" class="s1" d="m3730.48 1013.14c17.33 2.7 25.36 10.6 24.01 23.7q-2.98 6.32-9.9 8.82l-7.76-0.92q-10.57-0.22-17.72-14.44l0.86-10.39q0.31-2.01 10.51-6.77zm192.69 45.82q21.88 7.67 20.11 22.58c-1.16 9.92-6.66 14.43-16.45 13.54q-20.66-5.21-18.57-20.76l0.81-8.58q1.53-4.06 14.1-6.78zm3.08 244.89h1.81l-0.32 3.6q0.04 2.94-3.86 3.17l-1.49-3.62q0.57-3.83 3.86-3.15zm-0.86 46.72l3.28 0.68 0.02 2.92q-3.84 0-3.3-3.6zm81.31-150.55q32.02 3.15 32.4 38.6-2.02 19.62-32.6 20.32-14.99 27.97-29.04 26.85-3.59 1.35-8.06 1.13-28.52-13.1-26.13-38.37 14.01-33.41 16.69-33.18h1.79l17.1 3.39q13.14-20.09 27.85-18.74zm-13.36-130.22l4.48 0.22q22.18 4.06 20.11 20.99l-0.02 4.73q-1.5 13.1-16.19 11.75l-7.76-0.91c-9.41-6.62-13.59-14.29-12.61-23.02q0.61-8.57 11.99-13.76zm4.91 273.55l3.24 5.41-0.89 4.51q0.02 2.95-5.93 4.96l-1.26-0.68q-3.83 0.01-5.67-5.85l0.03-4.75q0.54-3.61 10.48-3.6zm-7.66 72.66q8.62 4.3 8.63 7.24l-0.59 8.56q-0.83 2.49-8.11 5.87l-6.5-0.23q-4.81-2.47-7.84-12.63 1.74-10.16 14.41-8.81zm44.17-55.73l5.13 0.45q2.42 0.44 6.59 7.21l-0.59 8.59q0.02 2.91-22.42 9.69-0.57 8.35-19.77 9.94-17.69-7-16.51-21 1.23-11.28 22.18-15.56 6.59 4.28 14.93 4.28l2.09 1.13zm-75.09 224.1q2.04-2.93 4.75-1.58 2.39-3.83-0.57-5.19l6.9-5.41q5.06 2.48-0.93 25.96l-2.04 3.15-2.7-1.58zm49.61-281.89l2.64 0.44c1.63 0.17 3.24 1.96 4.83 5.43l-0.3 3.6q0.01 2.95-4.47 2.73l-5.13-0.47q-3.89-1.13-3.91-4.05l0.95-3.38q-0.34-2.26 5.39-4.3zm3.49 134.3l7.77 0.89q2.68 0.23 5.07 5.41l-0.26 4.75c-0.42 1.81-3.11 3.75-8.09 5.88l-3.87 0.21q-3.28-0.67-7.22-7.66 2.14-9.72 6.6-9.48zm68.51-75.17h2.04q21.28 2.49 25.86 26.41l-0.94 6.32q-0.56 6.77-17.07 22.13l-9.53 13.99 2.97 10.37q-0.5 6.54-13.1 12.2l-8.39-1.13q-24.91-19.19-24.93-22.13l0.34-3.83q6.23-3.84 19.71-4.96 0.34-3.86 2.42-5.64 0.61-5.65-4.25-30.71 5.93-24.59 24.87-23.02zm35.01 10.39l1.85-0.23q2.64 0.45 5.66 5.88l-0.27 1.78c-0.39 1.81-2.52 3.39-6.32 4.75l-1.5-0.68q-3.83 0-5.67-5.85l-0.28-1.13q0.6-2.5 6.53-4.52zm-7.59 134.52q2.46 0.22 4.52 6.09l-0.56 6.77-5.74-0.92q-2.67-0.21-5.05-5.4l0.27-1.81q0.63-2.72 6.56-4.73zm19.11-63.2l2.46 0.23q3.28 0.67 3.51 3.6l-0.31 2.04q-0.53 3.59-4.45 2.71h-1.81q-3.28-0.68-3.29-3.62l0.27-1.81q0.94-3.38 3.62-3.15zm-1.98 75.61l9.55 0.9q7.82 0.67 9.09 23.93c24.4 36.25 37.68 54.62 39.87 55.07q8.14 0 17.09-2.49 35.96 4.05 32.16 38.6-9.31 27.75-34.44 25.28-31.52-9.7-29.41-31.39l4.15-23.46-34.21-52.13q-2.4-8.14-20.7-17.16l0.85-13.31q0.04-1.82 6-3.84zm2.17 52.13h1.81q3.31 0.44 5.69 5.64l-1.18 3.39q0.56 2.27-5.36 4.28h-1.81q-3.3-0.66-5.7-5.64l0.57-3.84q0.01-1.78 5.98-3.83zm71.98-163.86h1.81q23.33 2.49 24.86 34.75-1.76 17.84-37.98 21.68-3.28-0.67-11.08-4.51-6.91 2.48-12 1.81l-3.29-0.68q-16.53-1.15-16.55-23.7 1.21-14.23 30.25-16.7c0.78-7.39 8.79-11.6 23.98-12.65zm-20.46-61.16c2.38 1.2 3.57 2.79 3.58 4.73q-0.62 2.72-4.47 2.73-3.29-0.69-3.3-3.62 1.18-3.39 4.19-3.84zm123.41 1.81q3.29 0.67 3.3 3.6 0.01 2.94-4.45 2.71-3.33-0.44-3.32-3.6 1.2-3.4 4.47-2.71zm20.21 266.31l7.76 0.92q6.62 4.06 6.05 10.84-3.87 7.89-12.29 6.77c-4.6-2.43-6.82-4.22-6.64-5.43l0.64-10.37q1.18-3.39 4.48-2.73zm24.21-12.63l1.26 0.69q3.24-0.48 5.06 5.4l0.3 1.13q-0.54 3.61-3.83 2.94l-4.26-0.23q-3.29-0.68-3.3-3.6l0.3-3.62q0.63-2.71 4.47-2.71zm7.22 37.93q10.22 1.13 12.37 7.88l-1.24 8.37q-1.18 3.38-9.56 5.17-7.52-2.69-10.18-9.03l0.34-6.75q0.82-2.5 8.27-5.64zm18.61-37.03q22.48 8.14 20.41 23.7-1.23 14.22-20.37 18.5-23.43-9.46-21.89-27.3 6.51-16.47 21.85-14.9zm-7.84-12.63l3.29 0.68q3.93 0.9 3.94 3.84l-0.03 1.81q-0.3 2.02-6.03 4.04h-2.03q-3.92-0.9-3.91-4.04l1.15-3.18q0.02-3.15 3.62-3.15zm6.68 65.91l7.54 0.89q14.05 8.81 12.9 18.06l-0.29 4.96q-0.6 2.49-8.09 5.88l-11.39-0.92q-12.01-8.79-10.86-18.06 0.06-7.9 10.19-10.81zm10.31 41.52q4.11 1.12 4.12 4.07-1.17 3.38-4.45 2.7-3.29-0.67-3.31-3.62 1.19-3.38 3.64-3.15zm19.68-21.68l9.03 1.6q16.75 1.11 17.13 23.02l-0.36 3.83 1.84-0.23 13.2-2.26q31.11 12.43 47.97 32.52 11.75 24.36 22.24 26.62 9.56-2.26 14.67-1.58 36.19 4.06 40.8 47.4-11.96 42.42-49.11 38.82-40.43-4.28-42.05-54.17 0.35-3.84-31.17-27.09-26.74-38.81-27.36-49.87-33.86-2.94-31.5-23.25c3.2-7.52 8.12-12.63 14.67-15.36zm29.7 6.77h1.81q4.15 0.9 3.3 3.62l-0.04 1.81q-0.53 3.61-3.82 2.94l-2.46-0.23q-3.28-0.68-3.29-3.62l0.03-1.79q1.18-3.39 4.47-2.73zm65.91 0l5.72 0.92q4.17 0.91 3.32 3.6l-0.35 6.77q0.03 2.93-4.45 2.71l-5.09-0.67c-1.64-0.14-3.53-2.04-5.72-5.64l1.18-3.38q-0.34-2.27 5.39-4.31zm71.95 44.25h1.81q3.92 0.91 3.3 3.6l-0.3 3.62q0 2.94-4.47 2.71h-1.81q-3.32-0.45-3.33-3.39l0.35-3.83q1.17-3.38 4.45-2.71zm-20.14 135.41c2.64 0.6 3.71 1.81 3.32 3.62q0.01 2.92-3.64 3.16-3.29-0.69-3.3-3.6 1.17-3.39 3.62-3.18z"/>
			</g>
			<path id="&lt;Compound Path&gt;" fill-rule="evenodd" class="s1" d="m4688.16 2124.23q-0.99 3.48-4 3.49h-6.99l0.52-3.49q0.53-3.49 4.01-3.48h3.49q3.39 0.63 2.97 3.48zm31.57 10.45l-0.52 3.49h-1.75l0.52-3.49zm18.78 26.16l-0.52 3.48q-1.75 0.01-1.49-1.73l-3.74 1.73h-1.75q-3.49 0.01-2.97-3.48l3.74-1.74q2.77 1.73 6.73 1.74zm2.91-31.37l-3.74 1.73-1.23-3.48 3.75-1.75zm-14.2 83.68l-0.52 3.48h-1.73l0.52-3.48zm21.66-40.11q-0.36 2.39-10.01 8.72l-1.23-3.49 0.26-1.75q0.52-3.48 4-3.48zm-19.9 122.04l-0.78 5.23q-3.48 0.01-2.97-3.48zm48.58-303.19l-0.26 1.74q-1.15 3.49-4 3.48l-1.22-3.48 0.26-1.74zm-17.75 142.79l-0.52 3.49h-5.22l0.52-3.49zm-7.18 36.63l-0.26 1.73h-3.48l0.25-1.73zm4.12 19.17l-0.78 5.23h-1.73q-3.5 0-2.98-3.48l0.26-1.75zm5.44-36.61l-0.52 3.48h-3.48l0.52-3.48zm5.17 12.2l-5.76 3.49q-2.53-0.01-4.45-5.24l3.74-1.73h3.49q3.4 0.63 2.98 3.48zm6.09-64.51l-0.52 3.49h-1.73q-3.48 0-2.97-3.49zm2.32 31.39q-0.38 2.53-6.01 5.22h-1.75q-2.53 0-4.44-5.22l5.73-3.48h3.5q3.39 0.63 2.97 3.48zm-3.42-12.2q-1.15 3.48-4 3.48l-1.23-3.48zm14.69-87.02l-3.76 1.74h-1.73l0.77-5.22h1.74q3.42 0.47 2.98 3.48zm-13.56 149.78q-1.16 3.48-4.02 3.48h-1.73q-3.49 0-2.97-3.48l5.74-3.49q3.4 0.64 2.98 3.49zm254.59-36.62q-3.51 8.72-6.53 8.71 0.05-3.48-2.97-3.48-3.58 0.63-4 3.48 4.97 1.75 3.67 10.47l-4.26 5.24 8.38 13.93-8.01 6.99-9.95-3.49-4.26 5.22 1.24 3.48-2.27 3.5q0.67 10.46 3.67 10.46 0.53-3.48 4.01-3.49 3.42 0.48 2.96 3.49-6.78 10.47-7.03 12.2 1.23 3.33 0.96 5.23l-5.76 3.49q0.38-2.53-4.44-5.22-1 3.48-4.02 3.48l-4.7-3.48q-0.38 2.53-6.01 5.22 2.63 5.71 2.19 8.71h-5.23q0.61-4.11-5.67-8.71 0.94-6.33-4.9-13.94 2.69 0 8.01-6.98l0.25-1.74-12.72 3.49-1.23-3.49q2.25-3.33 2.53-5.23l-3.22-1.75h-5.24q-2.4 0.16-8.28 8.72-8.7 0-7.14-10.46-14.19 4.76-17.26 10.46l2.71 5.23q-0.26 1.75-2 1.75 1.25 3.33 0.96 5.22-2.23 3.33-2.51 5.23h5.23q0.58-3.96 6.77-10.45l0.26-1.75q-5.22 0-4.7-3.48l0.26-1.75q0.51-3.48 4.01-3.49 8.28 2.85 7.16 10.47h3.48l7.75-5.23h3.48l-0.78 5.23q-0.37 2.53-5.99 5.22l-4.72-3.49q-0.38 2.54-6.01 5.24 0.93 8.72 3.94 8.72 0.33-2.22 17.24-10.47 3.42 0.48 2.96 3.5-2.22 3.31-2.51 5.22 1.25 3.33 0.96 5.23l-3.22-1.75h-3.49l2.71 5.23q-7.66 3.5-10.97 3.49l-1.24-3.49 0.26-1.73 2.27-3.5h-6.98q-0.8 5.4-10.28 10.47-3.47-0.01-2.96-3.49 0.52-3.49 5.75-3.48l0.26-1.75h-5.23q-7.68 12.2-10.54 12.2-3.48 0.01-2.96-3.48 2.08-2.22 3.04-8.72-3.8 0-6.72-1.75l2.27-3.48 0.26-1.74h-3.49l-5.75 3.49q-1.64-2.86-0.89-17.44h-3.48q-0.52 3.48-2.27 3.48l1.23 3.49-0.26 1.75q-1 3.48-4.02 3.48l-3.22-1.73-2.26 3.48-0.25 1.74 1.21 3.48-8.52 10.47q-9.77-4.75-9.43-6.97l11.76-8.72-4.72-3.48h-1.75l-3.74 1.73-1.21-3.48q8.37-10.46 13.76-10.47l0.51-3.48q-5.23 0-4.71-3.49h1.75l-1.23-3.48 1.29-8.72h1.75l8.46 1.73-4.2-6.96 2.26-3.49h-3.49q-0.39 2.7-4.52 6.97l-8.46-1.73h-3.48q-0.36 2.37-6.79 10.45l4.72 3.48q0.52-3.48 4-3.48h5.23l-0.26 1.75q-0.38 2.54-6.01 5.23l1.23 3.49q-6.16 10.45-8.54 10.45-3.48 0.01-2.96-3.49l3.04-8.71q-5.23 0-4.45-5.24h-3.49q-3.49 0.01-4.26 5.24 1.24 3.33 0.96 5.23h-1.74q-1.75 0-1.49-1.75-7.28 2.06-19.08 12.22l-3.23-1.75q7.72-16.81 12.9-17.44 3.41 0.48 2.96 3.49 4.85-0.63 8.27-8.72h-6.97l2.25-3.49q-1.23-3.32-0.95-5.23 14.79-17.43 21.76-17.44l0.78-5.21-3.75 1.73h-5.23q-0.73 4.92-12.01 10.47-0.26 1.74-2.01 1.73-3.06-1.73-4.81-1.73-5.96 4.91-9.04 13.93h-1.75q0.26-1.73-1.49-1.73l2.27-3.48 0.78-5.24h-3.49q-0.78 5.23-8.54 10.45 1.26 3.34 0.98 5.24l-3.75 1.75-8.46-1.75 0.52-3.49 3.23 1.75q0.26-1.75 2.01-1.75l-1.24-3.48q2.25-3.32 2.53-5.23-1.75-0.01-1.49-1.74l-3.74 1.74-4.72-3.49q-6 5.24-9.82 19.17h-1.75q-3.48 0.01-2.96-3.48l4.26-5.24q-5.23 0.01-4.72-3.48 4.52-7.91 8.28-8.72h13.96l-0.46-8.72q10.46 0.01 11.49-6.96l-1.21-3.49 3.03-8.72q3.4 0.64 2.98 3.49-1.75 0-2.01 1.75h3.48l3.75-1.75q2.76 1.75 6.72 1.75l-0.71-6.99q2.24-3.32 2.52-5.21-6.23 3.48-9.23 3.48l-1.23-3.48q1.35-9.04 17.09-10.47-0.51 3.49 2.97 3.48l4.26-5.23q-3.07-1.73-4.96-1.74-3.6 1.75-5.34 1.74 0.4-2.69-5.94-6.97h-1.75q-1.72 0-16.09 26.15h-1.73l-1.23-3.48 0.26-1.75q0.52-3.48 5.75-3.48l1.56-10.47-0.46-8.7h-3.48l-5.76 3.48-8.45-1.75q-1.15 3.49-4.01 3.48l-1.21-3.48q12.94-15.68 24.99-15.69l0.26-1.75-1.22-3.48-3.74 1.75h-1.75l-7.68-6.98-7.49 3.48q-20.6-2.2-19.88-6.97 0.32-2.21 10.01-8.72l4.7 3.49h1.75q1.04-6.97 4.52-6.97 2.38 0 4.46 5.23-2.22 3.17-2.79 6.97h8.72l4.71 3.49h1.75l-1.23-3.49q0.52-3.48 4.01-3.48h1.74l-1.55 10.45h5.22q0.78-5.22 4.27-5.22 3.39 0.63 2.97 3.49l-3.74 1.73q1.21 3.5 0.95 5.23 15.54 0.01 16.58-6.96l-5.01-12.21q3.5 0 4.01-3.48-2.63-5.72-1.15-15.7 3.07 1.75 4.97 1.75l0.26-1.75q-1.3-3-0.71-6.97l0.26-1.75q3.95-4.11 4.37-6.97h1.75l4.7 3.49h1.75l0.78-5.24q-6.98 0-6.48-3.32l0.26-1.75q0.51-3.48 4-3.48l-0.19-10.47-8.81 1.75h-1.75l0.78-5.23q0.38-2.53 6.01-5.22l4.55 3.48 5.75-3.48h1.73l3.25 1.73-3.05 8.72-0.52 3.49q-0.51 3.49 2.97 3.48l8.02-6.97q3.41 0.48 2.96 3.49l-0.26 1.75-10.01 8.71q0.21 10.3 3.7 10.31 0.35-2.39 8.76-12.06l-0.45-8.71h1.75q5.72 5.23 11.42 5.23h1.75q3.48 0 4-3.48-20.14-5.24-19.62-8.72l0.26-1.75q5.89-8.71 8.26-8.72l1.23 3.5q-3.56 0.47-4 3.48l6.45 3.49q5.49-1.74 5.75-3.49 0.68-4.59-3.42-12.2 1.75 0 2-1.75l3.24 1.75q3.48 0 4-3.5 0.87-5.86-3.16-13.93l3.75-1.75h1.75l3.22 1.75-2.27 3.48-0.26 1.73h1.75l7.75-5.21q1.44-0.01 4.46 5.21-0.27 1.75-2 1.75l0.18 10.47h5.23l-1.23-3.5 0.26-1.73h1.75q6.6 2.54 6.19 5.23l-7.74 5.22q-2.76-1.73-6.71-1.73l-0.26 1.73q-0.58 3.81 0.69 6.98-2.23 3.33-2.51 5.22-0.26 1.75 17.16 1.75l0.26-1.75h3.5l-0.26 1.75-2.26 3.49 3.22 1.75q0.26-1.75 2.01-1.75-0.92-9.83-3.16-13.94 0.43-2.86 8-6.98-0.26 1.75 1.49 1.75l-2.26 3.48q1.25 3.32 0.97 5.23h1.75q0.94 0 9.75-6.98h10.46l0.51-3.48q-3.48-0.01-3.22-1.74 2.26-3.49 2.51-5.23-1.73 0-1.47-1.75l3.74-1.74q3.06 1.73 4.97 1.74 0.59-3.95 9.5-5.24l-1.23-3.48 2.27-3.48h-1.75l-3.75 1.75q-6.57-2.7-6.19-5.24h3.49l8.46 1.75q0.26-1.75 1.99-1.75-0.95-5.23-2.71-5.23-3.58 1.75-5.49 1.75 0.38-2.54 6.01-5.24 2.06 0 7.16 10.47h1.75l5.74-3.5q3.43 0.48 2.98 3.5l-0.26 1.74q-8.01 6.97-8.54 10.46l-3.22-1.75h-3.48q-0.43 2.86-4.27 5.24l-3.22-1.75q-6.24 3.49-9.24 3.48l0.44 8.72q-1.73 0-1.99 1.75 5.22 0 4.7 3.48l-0.26 1.75q-1.9 0.01-5.48 1.74-3.08-1.73-4.98-1.74l-0.51 3.49h12.2l3.22 1.73q0.26-1.73 2.01-1.73l1.22 3.48-10.54 12.2q-0.39 2.7 5.97 6.82h1.74l0.49-3.33h5.24l-6.25 6.82 8.91 10.46q0.67-4.44 16.73-6.98l4.19 6.98q-0.4 2.7-16.28 15.69l5.94 6.97q-2.59 5.71-11.31 17.43h8.72q1.73 0 1.99-1.73 20.93 0 19.37 10.45l-3.75 1.75h-1.73l-8.46-1.75q-0.26 1.75-2.01 1.75 0.35-2.38-4.45-5.23-0.51 3.48-5.76 3.48l1.24 3.49q-2.7 0-8.01 6.98-0.35 2.37 9.67 5.22-4.33 5.71-5.04 10.47 4.44 0 8.2 3.48h1.75q1.3-8.71 13.5-8.72h6.97q3.4 0.65 2.97 3.49zm-250.78 22.67l-3.75 1.75h-1.75l0.26-1.75q0.52-3.48 4.02-3.49zm13.49-90.66l-0.26 1.75h-3.49l0.26-1.75zm-21.33 155.17l-3.74 1.74-1.23-3.49 3.74-1.73zm23.15-167.38l-3.75 1.75h-3.48l0.26-1.75q0.52-3.48 4-3.48 3.39 0.63 2.97 3.48zm10.54-59.11l-0.52 3.49h-3.49l0.52-3.49zm0.87 111.42q-2.34 15.69-16.29 15.69 1.5 6.98 4.2 6.98 0.26-1.75 1.99-1.75l-0.52 3.48h-8.71q-3.49 0.01-2.97-3.48 2.24-3.32 2.53-5.23-3.49 0-2.97-3.49 0.51-3.48 4-3.48 3.07 1.75 4.98 1.75 3.77-10.47 6.77-10.47zm-6.13-64.34l-0.49 3.31h-1.74l0.5-3.31zm-3.33 104.45q-0.38 2.53-6 5.21h-1.75q-2.53 0.01-4.46-5.21 0.52-3.5 4.02-3.5h5.22q3.4 0.64 2.97 3.5zm7.61-109.69l-0.52 3.49h-1.75l0.52-3.49zm-23.72 182.9q-1.15 3.49-4 3.48l0.51-3.48zm37.37-87.17q-6.48 5.23-9.49 5.24-0.59 3.95 0.71 6.97l-4.8 8.71-3.22-1.75h-3.49l-0.51 3.49q5.23 0 4.71 3.5-9.92 6.97-11.5 6.97l-2.71-5.24 0.26-1.73q12.01-10.47 13.32-19.19-3.5 0.01-2.98-3.48 6.05-8.72 17-8.72zm-31.49 59.28l-0.52 3.48h-1.73l0.52-3.48zm7.16 10.45l-0.52 3.5h-5.24l0.53-3.5zm22.02-101.12l-0.26 1.75-2.27 3.49q-6.59-2.54-6.19-5.24 0.51-3.48 4-3.48h1.74q3.4 0.63 2.98 3.48zm-36.69 223.17q-2.23 3.33-2.51 5.22h-3.49l0.26-1.74q0.51-3.49 4-3.48zm14.78-99.38l-0.52 3.48h-1.73l0.52-3.48zm-4.54 54.04l-3.76 1.75 0.78-5.23q3.43 0.47 2.98 3.48zm36.97-236.94l-0.25 1.74h-3.49l0.78-5.22q3.41 0.47 2.96 3.48zm-1.93 36.46l-0.78 5.22h-5.22l0.26-1.74q0.51-3.49 4-3.48zm23.45-5.24q-1.13 7.61-5.56 13.96-10.84-1.75-17.37-12.22l0.26-1.74h5.23l0.26-1.75q-3.71-6.97-7.68-6.96l1.56-10.47h1.75q4.97 1.75 4.71 3.48l-0.77 5.24 3.22 1.75q3.73-6.98 13.24-6.99h1.74l-0.52 3.5q-0.52 3.49-11.23 5.22l-0.26 1.75q2.68 0 7.94 5.23zm-48.36 219.67q-0.41 2.7-8.02 6.97h-1.74q3.3-10.45 6.79-10.45 3.41 0.47 2.97 3.48zm23.48-181.31q-3.59 0.63-4.02 3.48h3.5zm-12.33 106.35l-0.26 1.74q-1.15 3.49-4 3.48l-1.23-3.48 3.74-1.74zm3.81-13.95l-3.75 1.75-1.21-3.5 3.74-1.73zm45.27-163.73l-3.74 1.75h-1.73l0.51-3.48q-7.49 3.48-8.25 8.55l-11.94-1.75 0.49-3.32q2.38 0 18.47-6.98 6.6 2.55 6.19 5.23zm-21.22 13.79h-5.23q0.52-3.48 4-3.49zm20.12-123.62l-3.74 1.75-1.22-3.5 3.75-1.73zm-22.41 174.18h-3.5l-0.26 1.75h3.5zm22.13-125.36l-0.26 1.74h-1.75q-3.48-0.01-2.97-3.49l3.75-1.75zm-18.91 127.11q-2.53 0-6.01 5.23l-0.52 3.49q3.97 0 6.53-8.72zm-16.27 97.63l-0.26 1.75h-3.48l0.26-1.75zm-13.49 90.66l-0.25 1.74h-3.49l0.26-1.74zm26.03-104.61l-2.27 3.48q-10.12-2.2-9.68-5.22l0.26-1.75h3.49q3.76 3.5 8.2 3.49zm0.92-29.64h-5.23l-0.26 1.75h5.23zm7.38-26.15h-3.49l-0.26 1.75h3.49zm-25.76 184.81l-3.74 1.73-1.22-3.48 3.75-1.74zm54.65-345.04q-0.99 3.49-3.85 3.49l-1.22-3.49zm-33.46 214.29l-0.25 1.73h-3.49l0.26-1.73zm6.11-6.98l-3.75 1.74h-3.33l0.26-1.74q0.52-3.49 3.85-3.49 3.39 0.63 2.97 3.49zm13.11-111.57h-1.59l-0.52 3.48h1.59zm24.49-12.22q-4.99-1.73-4.72-3.48-18.21 5.24-19.25 12.2l6.19 5.24q5.49-1.73 5.75-3.49-1.25-3.32-0.97-5.23l3.76-1.74 3.22 1.74-2.26 3.48-0.52 3.5h3.48zm-16.37 27.9q-5.22 0.01-4.18-6.96h-1.75l-3.29 10.45h5.22q3.49-0.01 4-3.49zm-12.04 57.53l-3.22-1.73-2.26 3.48-0.26 1.75h1.74q3.49 0 4-3.5zm3.42 12.2h-5.23q-0.59 3.98-2.78 6.99l-0.25 1.73h1.73q0.38-2.53 6.27-6.97zm-15.11 113.33l-0.51 3.49h-3.5l0.51-3.49zm31.75-190.02h-1.75q-3.57 0.63-4 3.48l-0.26 1.73h5.24zm1.15 15.69h-5.24l-0.51 3.48q3.75-1.74 5.49-1.74zm-21.52 144.7l-3.75 1.74-1.23-3.49 3.75-1.73zm-9.92 78.44l-0.26 1.75q-1 3.48-4.02 3.49-3.48-0.01-2.97-3.49 0.39-2.54 6.02-5.23zm62.48-338.06q-9.71 6.65-10.27 10.46h-3.49q-2.38 0-4.45-5.24 3.42-1.73 7.22-1.73l-1.21-3.49 0.52-3.49h3.48q-0.52 3.49 8.2 3.49zm-17.91 38.36h-5.23q0.52-3.5 4-3.5zm6.34-19.18l-0.52 3.48-7.24 1.75 0.52-3.48zm-30.69 182.89h-3.5l-0.26 1.75h3.5zm-7.04 94.15l-0.77 5.23q-0.35 2.38-10.02 8.72l-1.23-3.48 1.3-8.72q0.38-2.54 6.01-5.24h1.75q3.41 0.48 2.96 3.49zm-13.07 64.51l-0.52 3.48q-0.99 3.48-4 3.49h-3.5l0.25-1.74q2.27-3.49 2.53-5.23zm27.75-186.55h-3.49l-0.51 3.49h3.48zm25.24-146.29l-0.26 1.75h-5.23l0.26-1.75zm-8.47 45.17h-3.48l-0.26 1.74h3.48zm-25.67 172.59l-0.78 5.23q-3.48 0-2.96-3.48zm-7.65 74.96q-1.01 3.5-4.02 3.5l-1.22-3.5q0.52-3.48 4.01-3.48zm37-237.11h-1.74q-3.59 0.65-4.02 3.49h5.24zm-7.44 38.35q-3.6 0.65-4.02 3.49l-0.52 3.5h3.5zm14.36 55.79h-6.97l1.21 3.48q-4.49 7.94-8.26 8.72-2.85-4.28-2.45-6.97h-1.75q-1.55 10.45-6.77 10.45l-0.26 1.75h3.48q10.46 0 21.51-15.68zm-27.1 76.71l-0.26 1.75q-0.99 3.48-4 3.48-3.49 0-2.97-3.48l3.75-1.75zm-5.3 12.2h-3.49l0.52-3.48q3.41 0.47 2.97 3.48zm30.89-172.59h-1.74q-3.58 1.74-5.49 1.73l-0.26 1.75h5.23zm-41.67 268.49l-0.51 3.49h-5.24l0.52-3.49zm34.72-186.56l-8.46-1.73h-1.74l-0.52 3.48 3.75-1.75 4.71 3.5zm28.69-181.14l-0.25 1.73q-0.39 2.55-6.02 5.23l-4.19-6.96q2.86-0.01 7.5-3.49 3.41 0.48 2.96 3.49zm7.78-52.31l-0.51 3.48h-5.24l0.52-3.48zm-30.06 202.08l-3.22-1.75-2.27 3.48 3.23 1.75zm11.9-80.04h-1.75l-0.49 3.33h1.75zm-20.29 148.04h-3.48l-0.26 1.74h3.48zm16.3 66.24l-3.74 1.75q-5.15-10.13-8.9-10.47-3.28 1.75-7.24 1.75 0.26-1.75-1.47-1.75-1 3.49-4.02 3.49l-1.22-3.49 0.26-1.73q0.52-3.49 4-3.49 2.92 1.73 6.71 1.74l0.08-12.2 3.75-1.75zm21.63-250.89q-10.6 0.94-11.25 5.23h10.47zm-26.65 132.34h-3.5l-0.26 1.75h3.5zm16.83-113.17l-0.78 5.23h5.22q0.38-2.52-4.44-5.23zm-11.19 168.96q-2.86 0-13.42-3.48l-0.26 1.73q-0.53 3.5 2.96 3.5h10.46zm-11.49 6.97h-3.49l-0.78 5.23q1.9 0 4.96 1.75l0.26-1.75q-1.23-3.32-0.95-5.23zm-15.9 118.55l-3.03 8.72h-3.49l0.78-5.22q0.51-3.5 4-3.5zm56.33-390.36l-0.52 3.48h-1.75l0.52-3.48zm-4.3 52.31l-0.25 1.73q-3.07-1.73-4.98-1.73l0.52-3.49h1.75q3.41 0.48 2.96 3.49zm-14.23 95.73q-3.58 0.63-4.01 3.48h3.49zm21.17-130.6l-0.52 3.48h-3.5l0.52-3.48zm0.7 6.97l-0.26 1.75q-0.99 3.48-4 3.48l-1.23-3.48 3.76-1.75zm-15.09 113.16l-6.72-1.75q-0.52 3.5 4.71 3.5h1.75zm-38.42 223.16l-0.52 3.49h-1.75l0.52-3.49zm-8.7 81.94l-0.78 5.23h-1.74q-3.49 0-2.98-3.48l3.76-1.75zm-6.2 41.69q-0.99 3.48-4 3.49h-1.75l0.52-3.49q0.52-3.5 4.02-3.5zm55.44-372.77h-3.48l-0.26 1.73q-0.49 3.34 2.99 3.34zm-25.46 182.89l-0.51 3.49h-1.75q-3.48 0-2.97-3.49 0.52-3.48 4-3.48zm46.57-301.45h-3.48l0.52-3.48q3.42 0.47 2.96 3.48zm-24.35 163.73h-3.48l-0.52 3.48h3.48zm19.74-97.48l-0.52 3.48q-0.35 2.38-6.01 5.24h-1.74l0.26-1.75 2.25-3.49q-1.21-3.48-0.95-5.22l3.74-1.75q3.41 0.48 2.97 3.49zm7.89-29.64q-1 3.49-4 3.48h-1.74q-3.5 0.01-2.72-5.23 2.27-3.47 2.53-5.22h3.48q-1.03 6.97 2.45 6.97zm-14.3 61.03q-1 3.48-4.01 3.48l0.51-3.48zm-23.2 179.41h-6.98l-0.52 3.48q3.44-1.75 7.25-1.75zm31.67-224.75q-0.99 3.5-4 3.5l0.52-3.5zm-11.91 80.05h-3.48l-1.3 8.71q-0.51 3.49 2.97 3.49h1.75zm-17.49 94.15l-0.52 3.48h3.49q0.04-3.48-2.97-3.48zm42.11-177.68q-0.37 2.54-6.01 5.23-7.86-4.59-7.66-6.97l0.26-1.75q0.51-3.48 5.73-3.48 7.45 3.33 7.68 6.97zm-21.31 73.06h-3.49l-1.04 6.98h3.49zm-17.38 116.82h-3.48l-0.26 1.74h3.48zm-24.89 167.36l-0.78 5.23h-3.48l0.26-1.74q0.51-3.49 4-3.49zm36.89-259.76l-0.26 1.73q2.64 5.72 2.19 8.72h6.98l0.78-5.23q-0.97-5.23-9.69-5.22zm-12.77 97.63h-1.75l-0.52 3.48h1.75zm34.8-163.72q-0.99 3.48-4 3.48h-1.75q-3.48 0-2.97-3.48l0.26-1.75q0.53-3.48 4.01-3.49 2.55 0.01 4.45 5.24zm-30.36 168.94h-3.48l-0.26 1.75h3.48zm-12.92 122.05q-0.37 2.53-6.01 5.22h-3.48l0.77-5.22q0.53-3.5 4.01-3.5h1.75q3.42 0.49 2.96 3.5zm24.52-188.29h-3.48l-0.26 1.75h3.48zm-22.36 162.14q-1 3.48-4.02 3.48l-1.22-3.48q0.53-3.49 4-3.49zm30.09-202.24h-3.5l-0.26 1.75h3.49zm-31.11 209.21l-0.52 3.49h-3.5l0.52-3.49zm58.95-372.92l-3.74 1.73-1.23-3.48 3.74-1.75zm-3.89 26.14q-0.99 3.5-4 3.5l-1.23-3.5 0.77-5.22q2.54-0.01 4.46 5.22zm-10.82 61.02q-1 3.49-4.01 3.49l0.52-3.49zm-30.33 250.89l-0.26 1.75q-0.41 2.7-8.02 6.97-3.48 0.01-2.97-3.48 5.23 0 6.02-5.24zm3.06-55.79h-1.75l-0.52 3.5h1.75zm31.95-144.54l-8.46-1.74h-1.73l-0.52 3.49q4.44 0 8.22 3.32l2.23-3.32zm-8.24 8.57h-3.49l-0.25 1.73 1.21 3.49q-2.25 3.49-2.51 5.23 7.56 3.49 15.17 3.48l2.26-3.48q0.59-3.96-12.39-10.45zm21.46-97.49l-3.74 1.75h-1.73q-3.5 0-2.99-3.48l0.27-1.75h5.23q3.42 0.48 2.96 3.48zm-6.51 8.72q-1 3.49-4.02 3.49l0.52-3.49zm-47.83 345.04l-0.26 1.75q-0.38 2.53-6.02 5.23l-1.23-3.5 0.26-1.73q0.38-2.54 6.01-5.23zm56.15-318.89q-2.24 3.33-2.53 5.24h-6.97q-3.49-0.01-2.96-3.49l0.26-1.75q0.51-3.48 4-3.48h5.23q3.41 0.47 2.97 3.48zm-12.28 12.2l-0.52 3.49h-1.73l0.51-3.49zm9.69 5.24l-0.25 1.73q-0.43 2.87-11.25 5.24l-1.22-3.49 8.01-6.97h1.75q3.41 0.48 2.96 3.49zm-14.17 83.53q-3.58 1.73-5.49 1.73l1.23 3.49-0.26 1.75h-6.97l-0.26 1.73q5.85 0 8.46 1.75 2.04-2.06 3.29-10.45zm2.6-64.36h-1.75l-1.03 6.98q3.75-1.75 5.49-1.75l0.26-1.75q0.04-3.48-2.97-3.48zm-30.86 254.39q-1 3.48-4.01 3.48-3.48 0-2.96-3.48l5.75-3.49zm1.81-12.2l-0.25 1.74h-1.74q-3.5 0-2.98-3.49l3.76-1.75zm-1.91 71.48q-1.56 10.45-13.76 10.45l0.78-5.22q5.5-15.7 9.3-15.7 4.97 1.75 3.68 10.47zm34.9-304.95l-1.3 8.72h1.74q3.49 0.01 4-3.48 0.38-2.54-4.44-5.24zm-18.53 148.04h-1.75l-0.52 3.49h1.75zm27.5-102.87q-5.23 0-11.94-1.75l-0.26 1.75q-0.17 1.11 8.89 10.47l3.05-8.72zm-27.08 158.66l-0.52 3.48h-5.23q-3.48 0-2.97-3.48 0.52-3.5 4-3.5h1.74q3.43 0.48 2.98 3.5zm33.82-250.91l-0.52 3.5h-3.49l0.52-3.5zm0.38 67.85q-6.67-5.23-13.17-5.24l-0.26 1.75q5.47 10.14 5.16 12.2h1.74q3.97 0 6.53-8.71zm-34.28 195.26l-3.74 1.73-1.23-3.48 3.76-1.73zm50.13-313.67l-3.74 1.75-1.22-3.48 3.75-1.75zm-12.22 175.92l-3.74 1.75-3.23-1.75q-3.57 6.98-6.27 6.99-3.06-1.75-4.97-1.75l-2.25 3.48-0.27 1.75q6.93 3.48 11.69 3.49l1.04-6.97 5.67 8.7zm12.86-27.89q-6.33 0-11.42-5.23 1.39-9.35-10.64-10.47l-0.52 3.5q6.97-0.01 6.45 3.48l-2.26 3.49q9.58 6.97 16.39 6.97h1.75zm-65.31 310.16l-0.51 3.49h-5.24l0.52-3.49zm14.09-71.33l-0.52 3.5q-0.99 3.48-4 3.49-3.5-0.01-2.98-3.49l0.52-3.5q0.52-3.48 4.02-3.48 3.41 0.48 2.96 3.48zm41.98-235.35h-1.74l-5.75 3.49-3.23-1.74h-1.75l-0.25 1.74q4.12 0 7.42 8.71h1.75l-1.23-3.48 0.26-1.75 4.26-5.22zm-15.46 45.33h-3.49l-0.51 3.48q3.49 0.01 4-3.48zm-7.26 48.82h-1.74l-0.52 3.48h1.74zm2.87 62.76l-3.75 1.75q-1.74 0-1.47-1.75l-3.76 1.75h-1.74q-3.49 0-2.96-3.5 0.51-3.48 4-3.48l4.72 3.48 3.74-1.73zm-7.7 40.09q-0.52 3.5-5.75 3.5-6.57-2.7-6.19-5.24l0.26-1.75q0.51-3.48 4-3.48 7.87 4.61 7.68 6.97zm-15.28 55.79l-0.26 1.75q-0.99 3.48-4 3.48l-1.22-3.48 0.26-1.75q0.51-3.48 4-3.48zm46.48-324.12l-0.52 3.5h-1.75l0.52-3.5zm-15.75 141.06h-6.98q-0.52 3.49 2.96 3.49h3.5zm41.75-116.63l-0.26 1.73q-0.99 3.49-4 3.49 0.26-1.74-1.49-1.74l2.27-3.48q0.21-2.54-7.68-6.99h-1.75q-1.03 6.98-8.01 6.99l1.22 3.48-0.26 1.74h-3.48q0.78-5.23-6.2-5.22l0.26-1.75q11.38-10.46 27-17.44 3.42 0.48 2.97 3.49-7.35 2.53-7.75 5.23-0.12 0.8 7.16 10.47zm-72.8 313.65l-0.52 3.48h-3.48l0.51-3.48zm69.29-395.6l-0.77 5.24q-8.08 0-12.72 3.48l0.26-1.75q0.68-4.59 13.23-6.97zm-51.13 273.56l-0.52 3.49h-1.75l0.52-3.49zm4.05 31.37q-2.25 3.34-2.53 5.24h-1.74q-3.49 0-2.96-3.49l0.26-1.75q0.51-3.48 4-3.48 3.41 0.47 2.97 3.48zm33.11-210.95l-0.26 1.75h-3.49q-3.48 0-2.96-3.48l3.74-1.75q3.4 0.63 2.97 3.48zm2.9 15.69h-3.49q-4.8 3.5-7.49 3.5-0.51 3.48 2.97 3.48h5.23zm-11.63 31.39h-3.49l-0.51 3.49h3.48zm-6.3 54.04q-2.52 0-6 5.23 3.39 0.63 2.97 3.49l-2.27 3.48 3.22 1.75h1.75q-0.76-6.66 0.33-13.95zm2.05 33.12h-1.75q-4.8 3.5-7.49 3.5-1.29 8.71 7.43 8.72l2.77-6.99q-1.24-3.32-0.96-5.23zm41.85-175.91h-1.73q-2.76-1.75-6.72-1.75-0.35 2.38-6.02 5.23l-3.22-1.75q-0.99 3.49-4 3.49h-1.75l0.26-1.74q6.53-8.72 20.48-8.72zm-35.37 132.34h-5.24l-0.77 5.24q3.58-1.75 5.49-1.75zm-8.64 69.72h-1.73q-3.6 1.75-5.49 1.75l-0.52 3.49h1.75q3.58-1.74 5.47-1.74zm-13.59 68l-0.26 1.75h-3.49l0.26-1.75zm34.23-230.12l-0.52 3.48h-1.73l0.51-3.48zm-27.17 217.91l-3.75 1.75q-3.48 0-2.96-3.48 0.52-3.5 4-3.5h1.74q-0.29 1.91 0.97 5.23zm41.14-264.84h-3.5q-3.48 0.01-2.97-3.48l3.75-1.75zm-10.68 36.62l-0.52 3.48h-1.75l0.52-3.48zm-22.9 212.53l-9.49 5.24-1.23-3.5q4.13 0 6.79-10.45h1.75q2.63 5.7 2.18 8.71zm7.67-74.96h-5.24l-0.25 1.74h5.23zm31.99-191.63l-3.75 1.75q-3.5-0.01-2.98-3.49l0.26-1.75h3.5q3.41 0.48 2.97 3.49zm-11.13 74.81h-6.98q-0.52 3.49 2.98 3.48h3.48zm-26.71 179.58l-0.26 1.74h-1.75q-3.48 0-2.96-3.49l3.74-1.73zm-2.93 31.37l-0.26 1.75q-4.07 3.97-5.04 10.45l-3.23-1.73q3.94-10.46 8.53-10.47zm46.75-243.92l-0.53 3.5h-1.74l-4.7-3.5q-3.58 6.98-6.28 6.98l-1.23-3.48 0.26-1.75q0.38-2.53 6.02-5.24h1.75q3.75 3.5 6.45 3.49zm-3.3 57.37q-2.54 0.01-6.02 5.24l-0.26 1.75 2.71 5.22-3.74 1.75h-3.49l1.04-6.97h-10.47l0.78-5.24 11.94 1.75 0.78-5.23-6.71-1.75 0.78-5.23h5.23q2.38 0 7.43 8.71zm-30.03 108.1l0.51-3.48 2.27-3.5q-3.5 0-2.72-5.22h-3.48l-0.26 1.74 1.23 3.48-2.27 3.5q2.43 15.68 6.38 15.69h1.75q-0.71-6.98-3.41-12.21zm-8.15 31.38l-0.53 3.49h-1.74l0.52-3.49zm44.43-275.3l-0.26 1.75h-3.49l0.26-1.75zm1.09 27.89l-0.26 1.75q-1 3.48-4.01 3.48l-3.24-1.73q2.23-3.18 2.79-6.98h1.75q3.41 0.47 2.97 3.48zm-6.23 41.85q-0.99 3.49-4 3.49-3.5 0-2.98-3.49l0.52-3.49h3.5q3.41 0.48 2.96 3.49zm-20.31 113.16l-0.52 3.48h-3.5l0.52-3.48zm-5.45 36.62h-3.5q-0.51 3.48 2.98 3.48zm-31.63 212.69l-0.26 1.75h-3.5l0.26-1.75zm42.64-263.24l-0.52 3.48h-1.75q-3.48 0-2.97-3.48zm11.79-55.8l-8.01 6.97 3.03-8.72 0.26-1.75-1.21-3.48 3.74-1.73q-0.66 4.43 2.19 8.71zm-13.49 90.65l-7.48 3.49q1.23 3.33 0.95 5.23h6.99zm-12.45 83.69l-0.26 1.74h-3.48q-3.5 0.01-2.97-3.48 0.51-3.49 4-3.49zm-1.44 33.12q-5.23 0-6.27 6.97h-3.48q3.57-12.2 7.05-12.2h1.75q-0.29 1.9 0.95 5.23zm38.61-259.6q-0.99 3.48-4 3.48l-1.23-3.48 0.52-3.5h1.75q3.41 0.48 2.96 3.5zm-55.51 384.97q-3.57 6.96-6.27 6.97l-1.23-3.48 0.52-3.49q0.52-3.5 4.02-3.5 3.39 0.64 2.96 3.5zm70.23-472.15l-3.74 1.75-1.24-3.49 3.75-1.75zm-17.38 116.82l-3.74 1.73-1.23-3.48 0.26-1.75h1.75q3.41 0.48 2.96 3.5zm-14.23 95.72h-5.24l-0.52 3.5h5.24zm26.86-168.95q-0.99 3.48-4 3.48l0.52-3.48zm9.13 55.79q-7.98 12.2-19.25 12.2h-1.73l0.78-5.23q15.45-6.97 20.2-6.97zm-21.25 60.86l-0.78 5.24q-0.99 3.48-4 3.48h-3.49l0.52-3.48q0.35-2.38 6-5.24zm-22.82 153.43l-0.78 5.21q-0.99 3.5-4 3.5-3.48 0-2.96-3.5l0.25-1.73q0.53-3.49 4.01-3.48zm-9.79 54.04q-0.98 3.48-4 3.48l-1.22-3.48zm48.71-280.53l-0.52 3.48q-3.49 0.01-3.74 1.74 1.23 3.33 0.95 5.23h-5.23l1.3-8.72-2.71-5.23 3.74-1.73q-0.77 5.23 6.21 5.23zm-14.29 60.86l-0.26 1.74q-0.99 3.49-4 3.48l-1.23-3.48 3.74-1.74zm-0.55 50.56l-0.26 1.73q-2.69 0.01-7.74 5.24 0.51-3.48-4.72-3.49l0.52-3.48 3.22 1.73 2.79-6.96h1.75q2.53 0 4.44 5.23zm-16.71 88.91l-0.26 1.74q-3.95 0-7.22 1.75l-1.24-3.49 5.76-3.48q3.42 0.47 2.96 3.48zm-3.03 8.72l-0.26 1.73q-1 3.5-4.01 3.49-3.49 0.01-2.97-3.49l3.74-1.73zm-14.05 59.28l-0.52 3.48h-1.75l0.52-3.48zm39.96-233.47l-0.24 1.58q-1 3.5-4.02 3.5l-1.21-3.5 3.72-1.58zm-10.8 60.86l-0.26 1.75h-3.49l0.26-1.75zm19.54-107.94q-0.99 3.5-4 3.5l0.52-3.5zm14.31-61.01q-1 3.48-4.01 3.49-3.49-0.01-2.96-3.49 0.51-3.49 4-3.48 3.41 0.47 2.97 3.48zm-17.87 120.14l-3.74 1.73q-3.5 0.01-2.97-3.48 0.51-3.48 4-3.48zm-8.59 104.6q-3.72 6.98-6.25 6.98h-5.24q-3.49 0-2.96-3.5l0.26-1.73q0.59-3.97 13.24-6.99 1.24 3.34 0.95 5.24zm-5.36 24.4q-1 3.5-4.01 3.5l-1.22-3.5-3.75 1.75q-3.49 0-2.97-3.48l0.52-3.49h1.74q10.21 1.75 9.69 5.22zm10.06-102.85l-3.74 1.73-1.23-3.48 0.26-1.73h1.75q3.38 0.63 2.96 3.48zm-35.52 238.84l-0.52 3.5q-0.99 3.48-4 3.48l-1.23-3.48 0.52-3.5zm63.94-289.25q-9.41 3.49-12.72 3.49 2.18 8.72 1.69 12.05l-3.75 1.75q-4.24-12.05-6.92-12.06-0.26 1.75-2.01 1.75l-1.22-3.49q0.4-2.69 11.75-8.72l6.47 3.5q3.58-1.75 5.47-1.75zm-15.86 118.4q-2.52 5.22-11.24 5.22-3.48 0-2.45-6.97h-1.75l-5.73 3.48h-1.75q-3.49 0.01-2.97-3.48l0.52-3.48h6.97q1.75 0 1.49 1.74l3.74-1.74h3.48q10.3 1.1 9.69 5.23zm-8.39-13.95l-3.74 1.75h-1.75q-1.73 0-1.48-1.75l-3.74 1.75h-3.5l0.78-5.24h3.5l-2.72-5.23 3.76-1.75q1.73 0.01 8.89 10.47zm1.4-68l-0.52 3.49h-1.74l0.52-3.49zm8.31 26.16l-3.74 1.73q-1.29-3-0.7-6.97h-1.75l-5.75 3.49h-1.73l0.26-1.74q0.51-3.49 11.23-5.23 2.64 5.7 2.18 8.72zm-12.46 1.73l-0.52 3.5h-1.73l0.52-3.5zm-14.93 123.79l-0.52 3.48q-0.99 3.5-4 3.5l-1.21-3.5q0.51-3.48 4-3.48zm42.18-142.96l-0.78 5.24q-0.37 2.52-6 5.23-7.68-6.98-11.16-6.98l0.52-3.49 2.25-3.48q-2.69 0-7.16-10.47 0.26-1.73 2.01-1.73l-1.23-3.5 0.26-1.74q0.52-3.48 4-3.48h1.75q2.54-0.01 4.46 5.22-2.54 5.24-4.27 5.23 4.58 13.95 15.35 13.95zm-36.61 129.02l-3.76 1.73-1.21-3.48 3.74-1.75zm38.79-249.15q-1.15 3.48-4 3.48l-1.23-3.48q0.52-3.48 4.02-3.49zm-26.54 155.01l-0.52 3.48h-1.75l0.52-3.48zm-2.37 62.76l-0.26 1.75q-7.42-3.34-7.68-6.98 0.38-2.53 6.01-5.24l-0.26 1.75-2.25 3.49q2.53 0 4.44 5.23zm6.63 61.02l-0.26 1.74q-5.25 0.01-13.51 8.72l-8.38-13.95 0.26-1.74q2.52-5.23 11.23-5.23 11.02 8.08 10.66 10.46zm-23.34 27.89l-0.26 1.75h-3.48l0.26-1.75zm43.65-270.07l-0.52 3.48h-3.48l0.52-3.48zm-18.2 134.09q-1.15 3.49-4 3.48h-1.75l1.04-6.97h1.75q3.39 0.63 2.96 3.49zm-5.39 71.47l-3.76 1.75h-3.49q-3.48 0-2.96-3.48 0.52-3.5 4-3.5h1.75q2.54 0 4.46 5.23zm-10.1 20.92l-0.26 1.75h-3.48l0.26-1.75zm27.58-115.06q-1.9 0-10.27 10.46h-3.49q10.31-13.95 12.53-13.95zm-9.94 78.46l-0.25 1.74q-4.12 4.29-4.53 6.98h-3.48q-3.48 0-2.97-3.48 5.87-8.57 8.27-8.72 3.4 0.63 2.96 3.48zm34.29-242.17h-5.24q0.59-3.96-0.71-6.98l3.76-1.74q2.63 5.7 2.19 8.72zm-15.35 67.99l-0.52 3.49h-1.75l0.52-3.49zm1.15 15.69l-3.74 1.74-1.23-3.49 3.76-1.73zm-1.34 20.75q-0.38 2.54-6.01 5.24h-1.75l1.01-6.82q0.52-3.48 4.02-3.49zm-19.13 116.82l-0.25 1.73h-3.49l0.26-1.73zm6.74-45.32l-0.52 3.48h-1.73l0.52-3.48zm0.63 19.17q-1.15 3.49-4 3.48h-1.74l0.52-3.48zm18.32-111.42l-0.52 3.48h-1.75l0.52-3.48zm-2.71 41.67l-3.75 1.75-1.23-3.48 3.76-1.75zm-10.7 83.69l-0.51 3.49q-1.17 3.48-4.01 3.48-3.5 0-2.98-3.48l0.52-3.49zm11.41-76.71l-0.26 1.74h-1.75q-3.48 0-2.96-3.49l3.74-1.73zm-7 47.07q-1.16 3.48-4.01 3.49h-1.74l0.51-3.49q0.53-3.49 4.01-3.48zm35.37-132.34q-5.23 0-6.28 6.97h-3.48q0.31-2.06-8.89-10.47 1.72 0.01 1.99-1.73 5.2 3.48 8.2 3.48 0.52-3.48 4-3.48 2.54-0.01 4.46 5.23zm-25 62.59l-0.78 5.24h-3.48l0.77-5.24zm17.99-97.46l-3.75 1.73-1.23-3.48 3.74-1.74zm-30.6 252.64q-0.26 1.73-2 1.74l1.22 3.48-0.26 1.75-2.25 3.49-10.21-1.74 0.78-5.23h1.75l4.71 3.48 0.78-5.23-2.72-5.24 3.76-1.73q2.52-0.01 4.44 5.23zm-5.11 22.66l-3.74 1.75q-2.71-0.01-5.95-6.99l0.26-1.73h1.75q7.87 4.59 7.68 6.97zm32.65-219.51l-3.74 1.74h-1.75q-3.49 0.01-2.97-3.48l3.75-1.75h1.75q3.4 0.48 2.96 3.49zm-15.58 69.58h-3.49l0.52-3.5q3.39 0.64 2.97 3.5zm-24.96 179.57l-3.76 1.74-1.22-3.48 3.75-1.75zm27.03-193.51l-0.52 3.48h-1.75l0.52-3.48zm-13.89 116.8l-0.26 1.75q-1.15 3.48-4 3.48l-1.23-3.48 3.76-1.75zm17.48-94.13l-0.25 1.73q-1.16 3.49-4.01 3.49-3.48 0-2.96-3.49l0.26-1.73q0.52-3.5 4-3.5 3.39 0.64 2.96 3.5zm-5.55 13.93l-0.26 1.75h-3.49l0.26-1.75zm-4.92 33.13l-0.26 1.75h-3.49l0.26-1.75zm-22.88 165.62q-1.17 3.5-4.01 3.5l-1.23-3.5q0.53-3.48 4.01-3.48zm-1.82 12.21l-0.52 3.49h-5.23l0.52-3.49zm26.82-156.92l-3.75 1.75q-3.49 0-2.96-3.48l3.74-1.75q3.39 0.64 2.97 3.48zm-11.49 88.93q-1.15 3.48-4.01 3.48-3.48 0-2.96-3.48 0.52-3.5 4-3.5 3.42 0.48 2.97 3.5zm34.4-219.52l-0.78 5.24q-1.15 3.48-4 3.48l-1.24-3.48q0.26-1.75 2.01-1.75l-1.23-3.49q0.52-3.48 4-3.48zm-5.04 57.38l-3.75 1.73-2.71-5.22h3.49q3.39 0.63 2.97 3.49zm-10.81 61.01l-3.76 1.75-1.22-3.49 0.26-1.75h1.74q3.4 0.63 2.98 3.49zm-8.82 59.27h-5.23q0.52-3.48 4-3.48zm-12.12 69.74l-0.26 1.75h-3.49l0.26-1.75zm40.36-259.61h-3.5l0.52-3.48q3.43 0.47 2.98 3.48zm-11.27 99.22l-0.52 3.48q-1.15 3.48-4 3.49-3.5-0.01-2.98-3.49l0.52-3.48q0.52-3.49 4.02-3.49 3.38 0.64 2.96 3.49zm-9.85 66.24q-1.15 3.49-4 3.49-3.5 0-2.98-3.49zm0.3 33.12q-3.94 10.48-6.79 10.47h-6.98q1.39-9.35 8.8-12.2 3.06 1.74 4.97 1.73zm1.77-47.07h-5.23q0.52-3.48 4-3.48zm25.82-161.98q-1.15 3.49-4 3.48l-1.21-3.48q0.51-3.48 4-3.48zm2.82 74.81h-5.23q1.53-10.3-11.34-17.44l0.26-1.75q2.51-5.22 11.22-5.22 2.89 4.13 5.09 24.41zm-5.68-55.63l-0.25 1.74h-3.49l0.26-1.74zm-5.44 83.52q-1.16 3.5-4 3.5-6.6-2.54-6.21-5.24 0.53-3.49 4.01-3.48 6.58 2.69 6.2 5.22zm-10.09 20.92l-0.78 5.23h-3.49l0.26-1.73q0.53-3.5 4.01-3.5zm33.92-181.15l-0.25 1.74h-5.24q-3.48 0-2.96-3.49 0.52-3.48 4-3.48 2.54 0 4.45 5.23zm-23.5 146.29l-0.78 5.22h-3.48l0.77-5.22zm32.51-195.11h-5.22q0.51-3.48 4-3.49zm-39.26 287.51l-5.76 3.49q-3.49-0.01-2.96-3.49l7.48-3.48zm17.09-67.99l-0.78 5.23q-1.15 3.48-4.01 3.48h-6.98l-3.22-1.75 4.78-8.71zm-24.08 115.06l-3.76 1.74-1.22-3.49 3.74-1.73zm49.43-320.63l-3.75 1.75-1.23-3.5 3.76-1.74zm-29.49 233.46q-1.15 3.5-4 3.5-2.76-1.75-6.72-1.75l0.51-3.49q2.29 1.74 10.21 1.74zm-23.71 135.98q-1.16 3.5-4 3.49-3.5 0.01-2.98-3.49l0.52-3.48h3.5q3.41 0.47 2.96 3.48zm53.83-350.27l-0.26 1.75h-1.73q-3.49 0-2.97-3.48l3.75-1.75zm-19.82 156.76q-6.44 8.07-6.79 10.45h-3.48l0.52-3.49q5.86-4.28 6.25-6.96zm8.83 22.67q-1.15 3.48-4.01 3.48h-1.74l-11.94-1.75q-0.26 1.75-2.01 1.75l-1.22-3.48 3.75-1.75h3.48q1.75 0 1.49 1.75 6.22-3.5 10.97-3.5zm3.52-94l-0.78 5.23h-1.74q-6.59-2.69-6.2-5.23 0.52-3.48 4-3.49h1.75q3.41 0.48 2.97 3.49zm-28.34 249.15l-0.26 1.75q-4.07 3.95-5.3 12.21h-5.24q0.4-2.7-2.44-6.99 7.63-4.42 8-6.97zm36.75-282.27q-1.15 3.49-4 3.48l-1.21-3.48zm-8.35 67.84l-0.51 3.49h-3.49q-3.49-0.01-2.96-3.49l0.52-3.5h3.48q3.39 0.64 2.96 3.5zm6.79-57.38l-0.52 3.49h-3.48l0.51-3.49zm-4.66 31.38l-0.52 3.48q-3.48 0.01-2.97-3.48l0.52-3.49q3.41 0.48 2.97 3.49zm-28.83 205.56h-5.23q0.52-3.48 4-3.48zm19.51-142.96l-0.51 3.49h-1.74l0.52-3.49zm-5.51 48.81l-0.26 1.75h-3.48l0.26-1.75zm-2.08 13.95l-0.78 5.24h-3.48l0.78-5.24zm-4.41 29.64l-0.26 1.75h-3.49l0.26-1.75zm29.91-177.66l-3.74 1.73-1.23-3.48 3.74-1.75zm-32.06 203.82h-3.48l0.77-5.24h1.75q-0.28 1.91 0.96 5.24zm40.46-189.88l-1.04 6.98q-1.16 3.48-4.02 3.48h-3.48q-3.53-0.79-5.67-8.71l3.74-1.75-0.26 1.75 3.75-1.75zm-17.77 60.86l-0.53 3.5h-1.74q-3.49 0-2.97-3.5 0.52-3.48 4-3.49zm-35.72 228.4l-1.03 6.97h-3.49l1.04-6.97zm25.27-146.45l-0.78 5.23h-1.74q-3.5 0-2.98-3.48l3.76-1.75zm17.83-108.09l-3.75 1.74-1.23-3.49 3.75-1.75zm1.27-8.56h-3.48l0.52-3.49q3.41 0.48 2.96 3.49zm29.61-163.88q-1.16 3.48-4.02 3.48-3.48 0-2.96-3.48 0.52-3.49 4-3.48 3.43 0.47 2.98 3.48zm-50.36 350.27l-0.26 1.74q-1.15 3.49-4 3.48-3.5 0.01-2.97-3.48l0.26-1.74zm40.31-294.48l-0.51 3.49h-1.75l0.51-3.49zm-27.72 186.38l-0.52 3.49h-1.74l0.51-3.49zm-7.84 64.51l-0.52 3.49h-3.5q0.52-3.48 4.02-3.49zm38.98-238.69q-1.16 3.48-4 3.49h-1.75l0.52-3.49q0.52-3.49 4-3.48zm-6.56 102.7l-0.51 3.49q-12.79 1.74-14.22 1.74l1.04-6.98q0.36-2.38 5.99-5.07 5.32 6.82 7.7 6.82zm-25.65 125.52q-1.15 3.5-4 3.5-3.48 0-2.97-3.5 0.53-3.48 4.01-3.48 3.39 0.64 2.96 3.48zm-6.09 64.51l-0.52 3.48q-1.16 3.5-4.02 3.5l-1.21-3.5 0.51-3.48zm26.42-130.75q-4.68 7.92-8.27 8.71-3.49 0-2.98-3.48 0.57-3.81 2.79-6.98-1.25-3.33-0.97-5.22h3.5q1.73-0.01 5.93 6.97zm-9.38 27.88l-0.78 5.24h-1.74q-3.5 0.01-2.98-3.49l3.76-1.75zm-6.66 33.14h-3.5l0.52-3.5q3.41 0.64 2.98 3.5zm17.65-36.62q-1.16 3.49-4.02 3.48-4.75 0.01-7.41-8.71 6.22-3.48 10.98-3.49zm-12.81 15.7l-0.52 3.49h-1.73l0.52-3.49zm19.8-109.68l-0.52 3.48h-3.49l0.52-3.48zm-15.86 118.39l-0.52 3.5q-1.15 3.48-4 3.48l-1.23-3.48zm-23.16 167.37l-0.26 1.75q-1.15 3.48-4 3.48-3.48 0-2.97-3.48l0.26-1.75q0.52-3.48 4-3.48 3.42 0.47 2.97 3.48zm15.23-90.66q-1.15 3.5-4 3.5l-1.23-3.5zm29.08-207.3l-0.52 3.48h-1.73l0.52-3.48zm-3.98 132.34q-1.75 0-2.01 1.75l-3.23-1.75-5.75 3.48q-2.84 0-5.93-6.97l0.26-1.75q0.52-3.48 4-3.48h1.75q4.27 0.01 4.18 6.97l3.76-1.74q3.39 0.63 2.97 3.49zm-18.82 20.92l-0.51 3.48h-1.74l0.52-3.48zm-0.91 29.63q-1.16 3.5-4.02 3.49l-1.21-3.49q0.52-3.48 4-3.48zm38.47-235.2l-3.75 1.75-1.23-3.49 3.74-1.75zm-28.9 217.77l-0.78 5.23h-1.75q-3.48 0-2.96-3.48l3.74-1.75zm33.39-177.66q-1.15 3.48-4 3.48h-3.48q-3.5 0-2.97-3.48 6.06-3.49 9.24-3.49zm-16.02 60.86l-0.26 1.74h-3.49l0.26-1.74zm-20.03 146.44l-0.26 1.75h-3.5l0.26-1.75zm25.45-135.98l-0.26 1.75h-3.49l0.26-1.75zm16.21-50.4h-5.21q0.66-4.43-2.21-8.72l3.76-1.74q4.97 1.74 3.66 10.46zm-22.86 165.46l-2.26 3.49q-2.9-1.73-6.71-1.74l0.51-3.48 7.23-1.75zm32.65-219.5l-0.26 1.73h-5.23l0.26-1.73q0.52-3.5 4-3.5zm-6.67 80.03l-3.76 1.75h-1.73q-3.49 0-2.97-3.5l0.52-3.49h1.74q6.57 2.71 6.2 5.24zm12.39-36.46l-0.26 1.75q-1.15 3.48-4 3.49h-1.75q-3.48-0.01-2.97-3.49 2.27-3.48 2.53-5.23h3.49q3.41 0.47 2.96 3.48zm-3.64 46.93l-0.26 1.73h-3.33l0.25-1.73zm10.9-38.21q-0.99 3.49-4 3.48-3.48 0.01-2.96-3.48 0.52-3.48 4-3.48 3.42 0.47 2.96 3.48zm-14.11 118.4l-0.77 5.22h-5.24q-3.49 0.01-2.96-3.48l3.74-1.74zm23.35-121.88h-5.22q0.51-3.48 4-3.49zm-4.9 32.97l-3.75 1.74-1.21-3.49 3.74-1.75zm12.51-95.73l-0.52 3.49h-1.75l0.52-3.49zm-28.99 229.97l-3.74 1.75q-3.48 0-2.97-3.5l3.75-1.73q3.39 0.63 2.96 3.48zm12.69-38.35l-0.52 3.48h-1.75l0.52-3.48zm2.12 20.92l-3.76 1.75h-1.73l0.78-5.24h1.73q3.41 0.63 2.98 3.49zm19.89-122.04l-3.74 1.74h-1.75l0.25-1.74q0.52-3.48 4.02-3.48zm-5.19 34.87l-0.51 3.48h-3.49l0.52-3.48zm-8.82 59.27l-0.51 3.49h-3.49l0.52-3.49zm15.09-66.25l-0.52 3.49h-1.75q-3.48 0-2.96-3.49 0.52-3.49 4-3.49zm-12.6 108.1q-0.99 3.48-4 3.48-2.38 0-4.45-5.23l0.25-1.73h5.24q3.38 0.63 2.96 3.48zm26.8-156.76l-3.74 1.75q-3.48 0-2.97-3.48l3.75-1.75q3.41 0.47 2.96 3.48zm-9.49 52.16l-0.78 5.22h-1.75q-3.48 0.01-2.96-3.49l0.26-1.73zm10.09-67.84l-3.75 1.75 0.78-5.24q3.41 0.48 2.97 3.49zm20.19-88.92q-0.37 2.54-6.01 5.24-3.48-0.01-2.97-3.49 0.38-2.54 6.01-5.23 3.41 0.47 2.97 3.48zm-6.03 52.31l-0.26 1.73q-1 3.5-4 3.5h-3.5l0.26-1.75q0.52-3.48 4.02-3.48zm-26.95 181.15l-0.52 3.5h-1.75l0.52-3.5zm13.05-17.42q-1 3.48-4 3.48-3.48 0-2.97-3.48 0.52-3.5 4-3.5 3.39 0.64 2.97 3.5zm8.04-54.06l-3.75 1.75-1.23-3.49 3.76-1.75zm14.69-87.01l-0.78 5.23q-3.49 0.01-2.96-3.48zm2.12 20.92l-0.52 3.5h-1.75l0.52-3.5zm20.87-34.86q-0.99 3.48-4 3.49l-1.23-3.49zm2.37 66.08l-0.52 3.5h-3.48q0.51-3.5 4-3.5zm-22.77 188.3q-0.99 3.49-4 3.48h-1.75q-3.5 0.01-2.97-3.48 0.51-3.48 4-3.49h1.75q3.41 0.48 2.97 3.49zm17.23-92.4l-3.75 1.73q-3.49 0.01-2.96-3.48l3.74-1.73q3.39 0.63 2.97 3.48zm-17.59 153.42l-0.52 3.49h-5.23q-3.49-0.01-2.97-3.49 0.51-3.49 4.01-3.48h1.75q3.4 0.47 2.96 3.48zm31.3-198.74l-0.78 5.21h-1.73q-3.5 0.01-2.97-3.48l3.74-1.73zm28.86 5.21l-0.78 5.24h-5.21l0.77-5.24zm-5.65 73.23q-1 3.49-4.01 3.49h-1.75q-2.53 0-4.44-5.24 0.51-3.48 4.01-3.48h1.73q2.54 0 4.46 5.23z"/>
		</g>
	</g>
</svg>